<svg xmlns="http://www.w3.org/2000/svg" xml:space="preserve" width="800" height="800" viewBox="0 0 512 512" fill="#ededed"><path d="m511.746 374.302-39.385-242.905c-1.547-9.535-9.779-16.542-19.439-16.542H76.029l3.194 19.692 3.193 19.692 32.999 203.52 3.194 19.692 3.193 19.692h370.505a19.696 19.696 0 0 0 14.998-6.93 19.687 19.687 0 0 0 4.441-15.911zm-117.9-98.609H196.922c-10.875 0-19.692-8.818-19.692-19.692 0-10.877 8.817-19.692 19.692-19.692h196.923c10.875 0 19.692 8.816 19.692 19.692.001 10.874-8.816 19.692-19.691 19.692zM78.708 377.451l-3.193-19.691-16.34-100.779-9.975-61.518-9.975-61.519L.254 374.3a19.693 19.693 0 0 0 19.439 22.843h62.209l-3.194-19.692z"/></svg>