<svg xmlns="http://www.w3.org/2000/svg" fill="#dedede" viewBox="0 0 32 32"><path d="M30 18v-2h-6v10h2v-4h3v-2h-3v-2h4zM19 26h-4V16h4a3.003 3.003 0 0 1 3 3v4a3.003 3.003 0 0 1-3 3Zm-2-2h2a1.001 1.001 0 0 0 1-1v-4a1.001 1.001 0 0 0-1-1h-2ZM11 16H6v10h2v-3h3a2.003 2.003 0 0 0 2-2v-3a2.002 2.002 0 0 0-2-2Zm-3 5v-3h3l.001 3Z"/><path d="M22 14v-4a.91.91 0 0 0-.3-.7l-7-7A.909.909 0 0 0 14 2H4a2.006 2.006 0 0 0-2 2v24a2 2 0 0 0 2 2h16v-2H4V4h8v6a2.006 2.006 0 0 0 2 2h6v2Zm-8-4V4.4l5.6 5.6Z"/><path fill="none" d="M0 0h32v32H0z" data-name="&lt;Transparent Rectangle&gt;"/></svg>