<svg xmlns="http://www.w3.org/2000/svg" xml:space="preserve" width="800" height="800" viewBox="0 0 463 463" fill="#ededed"><path d="M395.196 67.805C351.471 24.08 293.336 0 231.5 0S111.53 24.08 67.805 67.805C24.08 111.529 0 169.664 0 231.5s24.08 119.971 67.805 163.695C111.53 438.92 169.665 463 231.5 463s119.971-24.08 163.695-67.805C438.92 351.471 463 293.336 463 231.5s-24.08-119.971-67.804-163.695zm-10.607 316.784C343.698 425.48 289.33 448 231.5 448s-112.197-22.52-153.089-63.412S15 289.329 15 231.5 37.52 119.303 78.412 78.411C119.303 37.52 173.671 15 231.5 15s112.197 22.52 153.089 63.411C425.48 119.303 448 173.671 448 231.5s-22.52 112.197-63.411 153.089z"/><path d="M424.133 207.437c-2.12-4.688-4.122-9.117-4.944-13.271-.868-4.389-.714-9.382-.551-14.668.25-8.081.508-16.437-2.779-24.363-3.352-8.083-9.507-13.848-15.459-19.422-3.799-3.558-7.388-6.919-9.796-10.516-2.446-3.654-4.203-8.292-6.062-13.201-2.874-7.588-5.846-15.434-11.97-21.559-6.124-6.124-13.969-9.096-21.557-11.971-4.91-1.86-9.547-3.617-13.201-6.063-3.598-2.409-6.959-5.998-10.518-9.798-5.575-5.953-11.339-12.108-19.423-15.46-7.928-3.288-16.285-3.03-24.367-2.781-5.286.164-10.28.318-14.67-.551-4.154-.822-8.583-2.824-13.271-4.944-7.12-3.22-15.19-6.869-24.065-6.869s-16.944 3.648-24.064 6.868c-4.688 2.12-9.117 4.122-13.271 4.944-4.389.868-9.382.714-14.668.551-8.082-.25-16.437-.507-24.364 2.779-8.083 3.352-13.848 9.507-19.422 15.459-3.558 3.799-6.919 7.388-10.516 9.796-3.654 2.446-8.292 4.203-13.201 6.062-7.588 2.874-15.435 5.846-21.559 11.97-6.124 6.124-9.096 13.969-11.971 21.557-1.86 4.91-3.617 9.547-6.063 13.201-2.409 3.598-5.998 6.959-9.798 10.518-5.953 5.575-12.108 11.339-15.46 19.423-3.288 7.928-3.031 16.285-2.781 24.367.163 5.287.317 10.28-.552 14.67-.822 4.154-2.824 8.583-4.944 13.271C35.649 214.555 32 222.625 32 231.5s3.648 16.944 6.868 24.064c2.12 4.688 4.122 9.117 4.944 13.271.868 4.389.714 9.383.551 14.669-.25 8.081-.507 16.437 2.779 24.363 3.352 8.083 9.507 13.848 15.458 19.422 3.8 3.558 7.388 6.919 9.796 10.516 2.446 3.654 4.203 8.292 6.063 13.202 2.874 7.588 5.846 15.434 11.969 21.558s13.97 9.096 21.557 11.971c4.91 1.86 9.547 3.617 13.201 6.063 3.598 2.409 6.958 5.998 10.517 9.797 5.575 5.953 11.339 12.108 19.423 15.46 7.927 3.288 16.284 3.031 24.367 2.781 5.287-.163 10.28-.317 14.671.552 4.154.822 8.582 2.824 13.271 4.944 7.121 3.219 15.191 6.868 24.066 6.868 8.874 0 16.943-3.648 24.063-6.868 4.688-2.12 9.117-4.122 13.271-4.944 4.39-.868 9.383-.714 14.668-.551 8.083.25 16.437.508 24.363-2.779 8.083-3.352 13.848-9.507 19.422-15.458 3.558-3.8 6.919-7.388 10.516-9.796 3.654-2.446 8.292-4.203 13.202-6.063 7.588-2.874 15.434-5.846 21.558-11.969 6.124-6.124 9.096-13.97 11.971-21.557 1.86-4.91 3.617-9.547 6.063-13.201 2.409-3.598 5.998-6.958 9.797-10.517 5.953-5.574 12.108-11.339 15.461-19.423 3.288-7.928 3.03-16.285 2.781-24.367-.163-5.287-.317-10.281.551-14.67.822-4.154 2.824-8.582 4.944-13.271 3.219-7.121 6.868-15.191 6.868-24.066 0-8.875-3.648-16.944-6.867-24.064zm-13.669 41.949c-2.376 5.256-4.833 10.69-5.991 16.54-1.199 6.061-1.011 12.152-.83 18.043.209 6.794.407 13.212-1.644 18.159-2.113 5.094-6.847 9.527-11.858 14.221-4.25 3.979-8.644 8.094-12.008 13.12-3.402 5.08-5.549 10.75-7.626 16.232-2.419 6.387-4.705 12.42-8.55 16.264-3.845 3.845-9.877 6.13-16.265 8.549-5.483 2.077-11.152 4.224-16.233 7.625-5.026 3.365-9.141 7.758-13.12 12.008-4.693 5.011-9.125 9.744-14.218 11.855-4.945 2.051-11.361 1.854-18.155 1.643-5.89-.182-11.982-.37-18.043.829-5.849 1.157-11.284 3.614-16.54 5.991-6.295 2.847-12.242 5.535-17.883 5.535-5.642 0-11.589-2.689-17.886-5.536-5.256-2.376-10.69-4.833-16.539-5.991-3.846-.761-7.703-.963-11.515-.963-2.195 0-4.376.067-6.529.134-6.797.209-13.213.407-18.159-1.644-5.094-2.113-9.527-6.847-14.221-11.858-3.979-4.249-8.094-8.643-13.12-12.008-5.08-3.401-10.75-5.549-16.232-7.626-6.387-2.419-12.42-4.705-16.264-8.55-3.845-3.845-6.13-9.877-8.549-16.265-2.077-5.483-4.224-11.152-7.625-16.233-3.365-5.026-7.758-9.141-12.008-13.12-5.011-4.693-9.744-9.125-11.855-14.219-2.051-4.945-1.853-11.361-1.643-18.154.182-5.891.37-11.983-.829-18.043-1.157-5.849-3.614-11.283-5.991-16.54C49.689 243.088 47 237.141 47 231.5s2.689-11.589 5.536-17.885c2.376-5.256 4.834-10.691 5.991-16.54 1.199-6.061 1.011-12.152.83-18.043-.209-6.795-.407-13.212 1.644-18.159 2.113-5.094 6.846-9.527 11.858-14.221 4.25-3.979 8.644-8.094 12.008-13.12 3.402-5.081 5.549-10.75 7.626-16.233 2.419-6.387 4.705-12.419 8.55-16.264 3.845-3.845 9.878-6.129 16.265-8.549 5.482-2.076 11.152-4.224 16.232-7.625 5.026-3.365 9.141-7.758 13.12-12.007 4.693-5.011 9.125-9.744 14.219-11.856 4.946-2.05 11.362-1.851 18.155-1.643 5.89.183 11.982.37 18.043-.829 5.849-1.157 11.283-3.614 16.54-5.991C219.913 49.689 225.859 47 231.5 47s11.589 2.689 17.885 5.536c5.256 2.376 10.691 4.834 16.54 5.991 6.06 1.199 12.15 1.011 18.043.83 6.795-.21 13.212-.408 18.159 1.644 5.094 2.113 9.527 6.847 14.22 11.858 3.979 4.25 8.095 8.644 13.121 12.009 5.081 3.402 10.75 5.549 16.233 7.626 6.387 2.419 12.419 4.705 16.264 8.55s6.129 9.878 8.549 16.265c2.076 5.482 4.224 11.152 7.625 16.232 3.365 5.026 7.758 9.141 12.007 13.12 5.011 4.693 9.744 9.125 11.856 14.219 2.05 4.945 1.852 11.361 1.643 18.155-.182 5.891-.37 11.982.829 18.042 1.157 5.849 3.614 11.284 5.991 16.54C413.311 219.913 416 225.86 416 231.5c0 5.642-2.688 11.589-5.536 17.886z"/><path d="M183.5 167c17.369 0 31.5-14.131 31.5-31.5S200.87 104 183.5 104 152 118.131 152 135.5s14.131 31.5 31.5 31.5zm0-48c9.098 0 16.5 7.402 16.5 16.5s-7.402 16.5-16.5 16.5-16.5-7.402-16.5-16.5 7.402-16.5 16.5-16.5zM351 191.5c0-17.369-14.131-31.5-31.5-31.5S288 174.131 288 191.5s14.131 31.5 31.5 31.5 31.5-14.131 31.5-31.5zM319.5 208c-9.098 0-16.5-7.402-16.5-16.5s7.402-16.5 16.5-16.5 16.5 7.402 16.5 16.5-7.401 16.5-16.5 16.5zM271.5 304c-17.369 0-31.5 14.131-31.5 31.5s14.131 31.5 31.5 31.5 31.5-14.13 31.5-31.5c0-17.369-14.13-31.5-31.5-31.5zm0 48c-9.098 0-16.5-7.402-16.5-16.5s7.402-16.5 16.5-16.5 16.5 7.402 16.5 16.5-7.401 16.5-16.5 16.5zM183 263.5c0-17.369-14.131-31.5-31.5-31.5-17.37 0-31.5 14.131-31.5 31.5s14.131 31.5 31.5 31.5c17.37 0 31.5-14.131 31.5-31.5zM151.5 280c-9.099 0-16.5-7.402-16.5-16.5s7.402-16.5 16.5-16.5c9.098 0 16.5 7.402 16.5 16.5s-7.401 16.5-16.5 16.5zM263 247.5c0-12.958-10.542-23.5-23.5-23.5S216 234.542 216 247.5s10.542 23.5 23.5 23.5 23.5-10.542 23.5-23.5zm-23.5 8.5c-4.687 0-8.5-3.813-8.5-8.5s3.813-8.5 8.5-8.5 8.5 3.813 8.5 8.5-3.812 8.5-8.5 8.5zM271.5 143c12.958 0 23.5-10.542 23.5-23.5S284.458 96 271.5 96 248 106.542 248 119.5s10.542 23.5 23.5 23.5zm0-32c4.687 0 8.5 3.813 8.5 8.5s-3.813 8.5-8.5 8.5-8.5-3.813-8.5-8.5 3.813-8.5 8.5-8.5zM343.5 248c-12.958 0-23.5 10.542-23.5 23.5s10.542 23.5 23.5 23.5 23.5-10.542 23.5-23.5-10.542-23.5-23.5-23.5zm0 32c-4.687 0-8.5-3.813-8.5-8.5s3.813-8.5 8.5-8.5 8.5 3.813 8.5 8.5-3.812 8.5-8.5 8.5zM183.5 320c-12.958 0-23.5 10.542-23.5 23.5s10.542 23.5 23.5 23.5 23.5-10.542 23.5-23.5-10.542-23.5-23.5-23.5zm0 32c-4.687 0-8.5-3.813-8.5-8.5s3.813-8.5 8.5-8.5 8.5 3.813 8.5 8.5-3.812 8.5-8.5 8.5zM119.5 207c12.958 0 23.5-10.542 23.5-23.5S132.458 160 119.5 160 96 170.542 96 183.5s10.542 23.5 23.5 23.5zm0-32c4.687 0 8.5 3.813 8.5 8.5s-3.813 8.5-8.5 8.5-8.5-3.813-8.5-8.5 3.813-8.5 8.5-8.5zM202.854 184.792a7.5 7.5 0 0 0-6.708 13.416l16 8a7.502 7.502 0 0 0 6.708-13.416l-16-8zM247.5 183a7.474 7.474 0 0 0 5.303-2.197l8-8a7.5 7.5 0 0 0 0-10.606 7.5 7.5 0 0 0-10.606 0l-8 8A7.5 7.5 0 0 0 247.5 183zM220.804 290.197l-8-8a7.5 7.5 0 0 0-10.606 0 7.5 7.5 0 0 0 0 10.606l8 8c1.464 1.464 3.384 2.197 5.303 2.197s3.839-.732 5.303-2.197a7.5 7.5 0 0 0 0-10.606zM292.804 250.197a7.5 7.5 0 0 0-10.606 0 7.5 7.5 0 0 0 0 10.606l8 8c1.464 1.464 3.384 2.197 5.303 2.197s3.839-.732 5.303-2.197a7.5 7.5 0 0 0 0-10.606l-8-8zM380.146 208.792l-16 8a7.499 7.499 0 0 0-3.354 10.062 7.499 7.499 0 0 0 10.062 3.354l16-8a7.499 7.499 0 0 0 3.354-10.062 7.498 7.498 0 0 0-10.062-3.354zM100.803 234.197a7.5 7.5 0 0 0-10.606 0l-8 8a7.5 7.5 0 0 0 0 10.606C83.661 254.268 85.581 255 87.5 255s3.839-.732 5.303-2.197l8-8a7.5 7.5 0 0 0 0-10.606zM218.197 92.803C219.662 94.268 221.581 95 223.5 95s3.839-.732 5.303-2.197a7.5 7.5 0 0 0 0-10.606l-8-8a7.5 7.5 0 0 0-10.606 0 7.5 7.5 0 0 0 0 10.606l8 8zM223.5 360a7.5 7.5 0 0 0-7.5 7.5v8a7.5 7.5 0 0 0 15 0v-8a7.5 7.5 0 0 0-7.5-7.5zM330.197 314.197l-8 8A7.5 7.5 0 0 0 327.5 335a7.474 7.474 0 0 0 5.303-2.197l8-8a7.5 7.5 0 1 0-10.606-10.606zM124.803 314.197a7.5 7.5 0 0 0-10.606 0 7.5 7.5 0 0 0 0 10.606l8 8c1.464 1.464 3.384 2.197 5.303 2.197s3.839-.732 5.303-2.197a7.5 7.5 0 0 0 0-10.606l-8-8zM322.197 124.803c1.464 1.464 3.384 2.197 5.303 2.197s3.839-.732 5.303-2.197a7.5 7.5 0 0 0 0-10.606l-8-8a7.5 7.5 0 0 0-10.606 0 7.5 7.5 0 0 0 0 10.606l8 8zM351.5 159c1.97 0 3.91-.8 5.3-2.2 1.4-1.39 2.2-3.33 2.2-5.3 0-1.97-.8-3.91-2.2-5.3a7.528 7.528 0 0 0-5.3-2.2c-1.97 0-3.91.8-5.3 2.2a7.528 7.528 0 0 0-2.2 5.3c0 1.97.8 3.91 2.2 5.3 1.39 1.4 3.33 2.2 5.3 2.2zM258.2 202.2a7.528 7.528 0 0 0-2.2 5.3c0 1.97.8 3.91 2.2 5.3 1.39 1.4 3.33 2.2 5.3 2.2 1.97 0 3.91-.8 5.3-2.2 1.4-1.39 2.2-3.33 2.2-5.3 0-1.97-.8-3.91-2.2-5.3a7.528 7.528 0 0 0-5.3-2.2c-1.97 0-3.91.8-5.3 2.2zM162.2 210.2c-1.4 1.39-2.2 3.32-2.2 5.3a7.51 7.51 0 0 0 7.5 7.5c1.97 0 3.91-.8 5.3-2.2 1.4-1.39 2.2-3.33 2.2-5.3a7.51 7.51 0 0 0-7.5-7.5c-1.98 0-3.91.8-5.3 2.2zM127.5 135c1.97 0 3.91-.8 5.3-2.2 1.4-1.39 2.2-3.33 2.2-5.3a7.51 7.51 0 0 0-7.5-7.5 7.51 7.51 0 0 0-7.5 7.5c0 1.97.8 3.91 2.2 5.3 1.39 1.4 3.33 2.2 5.3 2.2zM250.2 282.2a7.528 7.528 0 0 0-2.2 5.3c0 1.97.8 3.91 2.2 5.3 1.39 1.4 3.33 2.2 5.3 2.2a7.51 7.51 0 0 0 7.5-7.5 7.51 7.51 0 0 0-7.5-7.5c-1.97 0-3.91.8-5.3 2.2zM255.5 376c-1.97 0-3.91.8-5.3 2.2a7.528 7.528 0 0 0-2.2 5.3 7.51 7.51 0 0 0 7.5 7.5 7.51 7.51 0 0 0 7.5-7.5 7.51 7.51 0 0 0-7.5-7.5zM103.5 272c-1.97 0-3.91.8-5.3 2.2a7.528 7.528 0 0 0-2.2 5.3c0 1.97.8 3.91 2.2 5.3 1.39 1.4 3.33 2.2 5.3 2.2 1.97 0 3.91-.8 5.3-2.2 1.4-1.39 2.2-3.33 2.2-5.3 0-1.97-.8-3.91-2.2-5.3a7.528 7.528 0 0 0-5.3-2.2z"/></svg>