<svg xmlns="http://www.w3.org/2000/svg" xml:space="preserve" width="800" height="800" viewBox="0 0 512 512" fill="#ededed"><path d="M133.442 268.993H17.332V121.685a8.666 8.666 0 0 0-17.332 0v155.973a8.666 8.666 0 0 0 8.666 8.666h2.6v103.99a8.666 8.666 0 0 0 17.332 0V325.32h84.914v64.994a8.666 8.666 0 0 0 17.332 0v-103.99h2.6a8.666 8.666 0 1 0-.002-17.331zm-19.931 38.996H28.597v-21.665h84.914v21.665zM503.334 113.02a8.665 8.665 0 0 0-8.666 8.666v147.307H378.546a8.665 8.665 0 0 0-8.666 8.666 8.665 8.665 0 0 0 8.666 8.666h2.6v103.99a8.665 8.665 0 0 0 8.666 8.666 8.665 8.665 0 0 0 8.666-8.666v-64.994h84.925v64.994c0 4.786 3.879 8.666 8.666 8.666s8.666-3.88 8.666-8.666v-103.99h2.6a8.665 8.665 0 0 0 8.666-8.666V121.685a8.667 8.667 0 0 0-8.667-8.665zm-19.931 194.969h-84.925v-21.665h84.925v21.665z"/><path d="M404.652 186.382H294.713l-30.966-61.933a8.667 8.667 0 0 0-15.502 0l-30.967 61.933H107.34a8.666 8.666 0 0 0 0 17.332h7.12v25.996a8.666 8.666 0 0 0 8.666 8.666H152.3v151.933a8.666 8.666 0 0 0 17.332 0V238.376h125.654c4.787 0 8.666-3.88 8.666-8.666s-3.879-8.666-8.666-8.666H131.792v-17.33H380.2v17.33h-53.718c-4.787 0-8.666 3.88-8.666 8.666s3.879 8.666 8.666 8.666h15.879v151.933a8.665 8.665 0 0 0 8.666 8.666 8.665 8.665 0 0 0 8.666-8.666V238.376h29.173a8.665 8.665 0 0 0 8.666-8.666v-25.996h7.121a8.666 8.666 0 1 0-.001-17.332zm-167.996.001 19.34-38.681 19.341 38.681h-38.681z"/></svg>