<svg width="43" height="35" viewBox="0 0 43 35" fill="none" xmlns="http://www.w3.org/2000/svg">
<g clip-path="url(#clip0)">
<path fill-rule="evenodd" clip-rule="evenodd" d="M16.3054 18.6302L18.8622 20.6247C19.7107 21.3859 20.44 21.9404 21.2603 22.776C21.6689 23.1759 22.0719 23.5042 22.4806 23.9041C22.6651 24.0696 23.4456 24.8363 23.6046 25.1119C23.9681 25.8038 23.5773 26.4839 23.0471 26.7065C22.1483 27.0307 21.3335 25.8342 20.3685 24.902C19.9598 24.5021 19.5568 24.1738 19.151 23.8098L15.4079 20.6845C14.7524 20.1962 11.8721 18.0113 11.6279 17.5262C10.8979 16.1066 12.4856 15.403 13.3332 14.8666C16.1026 13.0952 17.7469 12.2428 20.0679 10.0026C20.4817 9.60907 20.8897 9.14389 21.2014 8.75851C22.2951 7.44548 23.7028 8.77483 23.0117 9.98357C22.2895 11.2309 19.5601 13.5037 18.1286 14.4472C17.5107 14.8571 15.6737 15.8691 15.2656 16.3342C16.9019 16.2395 19.1 16.3161 20.7535 16.4363C24.0605 16.6765 28.8362 16.439 32.1995 16.098C33.1835 15.9833 34.1704 15.9044 35.1913 15.8228C36.1413 15.7108 36.9749 15.4279 37.3868 16.2962C37.6311 16.7813 37.4953 17.2247 37.2431 17.4972C36.7756 18.0753 33.9765 18.1909 33.2278 18.2507C29.0137 18.6597 25.9481 18.8687 21.7223 18.7019C20.7949 18.6678 16.7958 18.3387 16.3054 18.6302Z" fill="#1A2320"/>
</g>
<defs>
<clipPath id="clip0">
<rect width="30.2439" height="40" fill="white" transform="matrix(-0.0796845 -0.99682 -0.99682 0.0796845 42.6692 31.043)"/>
</clipPath>
</defs>
</svg>
