<svg width="40" height="31" viewBox="0 0 40 31" fill="none" xmlns="http://www.w3.org/2000/svg">
<g clip-path="url(#clip0)">
<path fill-rule="evenodd" clip-rule="evenodd" d="M25.2908 14.4739L22.901 12.282C22.1158 11.4556 21.433 10.8447 20.682 9.9464C20.3065 9.51522 19.9309 9.15589 19.5554 8.72471C19.3847 8.54505 18.6678 7.7186 18.5312 7.43115C18.224 6.7125 18.6678 6.06572 19.214 5.88606C20.1358 5.63453 20.8527 6.89216 21.7403 7.89826C22.1158 8.32945 22.4914 8.68877 22.8669 9.08403L26.3491 12.4976C26.9636 13.0366 29.6606 15.444 29.8654 15.9471C30.4799 17.4203 28.8412 17.9952 27.9536 18.4623C25.0518 20.0074 23.3448 20.7261 20.8527 22.7742C20.4089 23.1335 19.9651 23.5647 19.6237 23.924C18.4288 25.1457 17.1315 23.7085 17.9167 22.5586C18.7361 21.3729 21.6379 19.3247 23.14 18.4983C23.7886 18.139 25.7004 17.2766 26.1442 16.8454C24.5056 16.8095 22.3207 16.5579 20.682 16.3064C17.4046 15.8034 12.6252 15.6596 9.24538 15.7315C8.25535 15.7674 7.26531 15.7674 6.24114 15.7674C5.28524 15.8034 4.43177 16.019 4.09037 15.1206C3.88554 14.6176 4.05624 14.1864 4.32935 13.9349C4.84144 13.3959 7.64084 13.5037 8.3919 13.5037C12.6252 13.4318 15.6977 13.4678 19.8968 13.9708C20.8185 14.0786 24.7787 14.7254 25.2908 14.4739Z" fill="#1A2320"/>
</g>
<defs>
<clipPath id="clip0">
<rect width="30.2439" height="40" fill="white" transform="matrix(-4.37114e-08 1 1 4.37114e-08 0 0)"/>
</clipPath>
</defs>
</svg>
