<svg xmlns="http://www.w3.org/2000/svg" width="83.115" height="27.078" viewBox="0 0 83.115 27.078"><g transform="translate(0)"><path d="M95.774,80.791h-1.5C94.274,73.739,86.549,68,77.054,68V66.5a21.918,21.918,0,0,1,13.158,4.117,14.758,14.758,0,0,1,4.054,4.535A11.4,11.4,0,0,1,95.774,80.791Z" transform="translate(-77.054 -53.713)" fill="#fff"/><path d="M77.054,78.5V77c9.5,0,17.22-5.737,17.22-12.789h1.5a11.4,11.4,0,0,1-1.508,5.637,14.758,14.758,0,0,1-4.054,4.535A21.918,21.918,0,0,1,77.054,78.5Z" transform="translate(-77.054 -64.206)" fill="#fff"/><path d="M83.113.75H0V-.75H83.113Z" transform="translate(0.002 13.54)" fill="#fff"/></g></svg>