<svg xmlns="http://www.w3.org/2000/svg" width="63.97" height="27.078" viewBox="0 0 63.97 27.078"><g transform="translate(-1292.03 -659.709)"><g transform="translate(138 39)"><g transform="translate(1134.885 620.709)"><path d="M77.8,80.791H76.3a11.4,11.4,0,0,1,1.508-5.637,14.758,14.758,0,0,1,4.054-4.535A21.918,21.918,0,0,1,95.024,66.5V68C85.529,68,77.8,73.739,77.8,80.791Z" transform="translate(-11.909 -53.713)" fill="#fff"/><path d="M77.8,80.791H76.3a11.4,11.4,0,0,1,1.508-5.637,14.758,14.758,0,0,1,4.054-4.535A21.918,21.918,0,0,1,95.024,66.5V68C85.529,68,77.8,73.739,77.8,80.791Z" transform="translate(114.169 80.791) rotate(180)" fill="#fff"/><path d="M95.024,78.5a21.918,21.918,0,0,1-13.158-4.117,14.758,14.758,0,0,1-4.054-4.535A11.4,11.4,0,0,1,76.3,64.206h1.5C77.8,71.258,85.529,77,95.024,77Z" transform="translate(-11.909 -64.206)" fill="#fff"/><path d="M95.024,78.5a21.918,21.918,0,0,1-13.158-4.117,14.758,14.758,0,0,1-4.054-4.535A11.4,11.4,0,0,1,76.3,64.206h1.5C77.8,71.258,85.529,77,95.024,77Z" transform="translate(114.169 91.284) rotate(180)" fill="#fff"/><path d="M60.5.75H0V-.75H60.5Z" transform="translate(22.615 13.54)" fill="#fff"/></g></g></g></svg>