<svg width="1229" height="1691" viewBox="0 0 1229 1691" fill="none" xmlns="http://www.w3.org/2000/svg">
<path d="M943.221 446.315H1227.24V410.659H983.18C983.18 297.544 1228.47 276.642 1228.47 129.099C1228.47 34.4265 1160.23 0 1084.62 0C991.172 0 917.401 60.2464 935.844 191.19L972.729 199.797C953.057 79.304 1014.53 33.197 1085.84 33.197C1157.77 33.197 1187.89 69.4678 1188.51 130.944C1188.51 260.043 943.221 278.486 943.221 416.807V446.315Z" fill="#D3072B"/>
<path d="M585.315 381H612.315C614.425 381.34 616.535 381.85 618.665 382C650.315 384.11 680.525 391.74 707.905 407.92C777.995 449.34 812.805 511.92 815.995 592.52C816.905 615.46 816.255 638.46 816.325 661.44V668.09C820.085 665.18 822.865 663.2 825.445 660.99C866.085 626.22 912.095 603.83 966.055 599.52C997.805 596.99 1028.83 599.52 1058.7 611.52C1092.46 625.08 1119.46 647.52 1142.37 675.25C1169.2 707.79 1188.01 744.19 1195.26 786.05C1196.79 794.86 1197.69 803.78 1198.88 812.66V835.66C1198.55 837.44 1198.17 839.2 1197.88 840.99C1196.65 849.2 1195.88 857.52 1194.15 865.61C1184.83 907.99 1161.54 941.94 1129.8 970.61C1101.15 996.5 1068.29 1015.89 1033.59 1032.41C1031.75 1033.28 1029.94 1034.22 1027.2 1035.59C1032.2 1037.95 1036.06 1039.84 1039.97 1041.59C1072.97 1056.51 1104.41 1074.08 1131.54 1098.51C1164.84 1128.51 1187.17 1164.79 1195.19 1209.26C1196.75 1217.9 1197.65 1226.66 1198.86 1235.36V1260.36C1198.53 1261.97 1198.16 1263.58 1197.86 1265.2C1195.23 1280.4 1193.86 1295.94 1189.77 1310.75C1176.77 1358.13 1149.48 1396.54 1112.54 1428.28C1082.96 1453.69 1048.66 1468.73 1009.78 1472.86C977.685 1476.27 946.785 1470.86 916.785 1459.71C883.315 1447.35 852.785 1429.56 823.585 1409.25C821.505 1407.81 819.325 1406.5 816.335 1404.59V1411.12C816.335 1425.44 816.335 1439.76 816.335 1454.12C816.505 1497.58 809.965 1539.7 790.335 1578.97C765.565 1628.47 727.935 1663.55 674.205 1679.52C633.115 1691.72 591.125 1693.98 549.325 1684.73C471.055 1667.41 419.325 1619.64 393.395 1543.98C380.705 1506.86 381.515 1468.31 383.125 1429.8C383.465 1421.8 384.125 1413.73 384.615 1405.59C383.745 1405.71 383.365 1405.64 383.155 1405.8C379.285 1408.69 375.465 1411.63 371.595 1414.52C327.405 1447.52 279.235 1470.43 223.155 1473.52C186.775 1475.52 152.285 1468.63 120.155 1451.19C85.2648 1432.26 58.0248 1405.03 36.4448 1372.08C7.36484 1327.69 -3.98516 1278.68 1.22484 1226.08C5.56484 1182.36 25.0848 1145.5 55.1748 1113.98C83.7048 1084.09 117.935 1062.2 154.615 1043.82C159.885 1041.18 165.205 1038.64 170.535 1036.03C170.125 1035.28 170.045 1034.88 169.815 1034.76C168.335 1033.99 166.815 1033.25 165.335 1032.57C134.915 1018.89 105.335 1003.74 79.1148 982.83C19.7348 935.52 -7.99518 874.45 2.11482 798.67C10.3548 736.74 38.3548 684.67 87.6348 645.16C143.275 600.4 205.215 586.8 273.905 609.1C312.095 621.5 346.465 641.28 379.225 664.1C380.775 665.18 382.355 666.21 384.765 667.83C384.485 662.69 384.265 658.72 384.075 654.75C383.475 642.31 382.505 629.87 382.385 617.42C382.035 581.42 386.385 545.93 399.585 512.17C428.215 439.1 480.865 395.51 559.115 384.06C567.815 382.79 576.575 382.01 585.315 381ZM492.115 888.6C490.725 886.68 489.685 885.19 488.585 883.73C471.845 861.33 455.665 838.5 438.225 816.65C408.855 779.86 376.545 745.83 338.715 717.46C308.715 694.98 276.485 677.1 239.105 670.18C203.165 663.52 169.545 668.68 139.405 690.51C120.405 704.29 105.465 721.87 93.1648 741.71C74.4148 771.96 66.0348 804.83 69.7548 840.36C73.3348 874.55 89.2248 902.53 114.505 925.36C141.785 950.03 174.215 965.61 208.505 977.72C267.065 998.42 327.915 1008.07 389.385 1014.61C398.935 1015.61 408.495 1016.49 418.055 1017.43V1054.77C417.055 1054.98 416.485 1055.18 415.835 1055.25C394.675 1057.61 373.465 1059.62 352.365 1062.39C310.105 1067.94 268.365 1076.07 227.595 1088.77C192.345 1099.77 158.465 1113.77 128.595 1136.01C81.0948 1171.27 61.4648 1217.9 71.4148 1276.57C78.3448 1317.45 99.7548 1349.57 131.415 1375.43C154.745 1394.49 181.305 1405.07 211.725 1404.82C238.295 1404.6 263.345 1397.89 287.305 1386.73C324.165 1369.55 355.365 1344.55 384.135 1316.28C423.755 1277.37 457.255 1233.48 488.445 1187.72C489.625 1185.98 490.855 1184.28 492.165 1182.43L525.545 1201.76C518.715 1216.98 511.935 1231.42 505.705 1246.09C478.705 1309.56 456.405 1374.32 451.815 1443.86C449.685 1476.1 452.695 1507.66 465.235 1537.86C482.455 1579.35 512.465 1605.86 556.415 1616.15C581.415 1621.96 606.565 1622.15 631.835 1618.57C652.835 1615.63 672.675 1609.29 690.415 1597.36C717.585 1579.08 732.605 1552.62 740.275 1521.62C751.415 1476.62 748.685 1431.47 739.745 1386.47C729.965 1337.3 712.975 1290.47 692.805 1244.74C686.515 1230.46 679.805 1216.35 673.135 1201.74L706.325 1182.54C717.215 1197.9 727.735 1213.04 738.735 1227.9C771.485 1272.02 807.045 1313.59 850.165 1348.07C880.735 1372.52 913.835 1392.33 952.585 1400.89C981.695 1407.31 1010.82 1407.7 1037.93 1393.84C1085.04 1369.76 1114.52 1330.9 1126.03 1279.58C1137.32 1229.23 1123.96 1185.39 1086.03 1149.68C1068.4 1133.07 1048.03 1120.63 1026.26 1110.26C983.265 1089.78 937.735 1077.49 891.055 1069.67C856.965 1063.95 822.525 1060.31 788.235 1055.8C778.965 1054.58 778.955 1054.66 778.955 1045.1V1017.67C781.115 1017.3 782.575 1016.98 784.055 1016.81C805.055 1014.44 826.055 1012.4 847.055 1009.66C891.315 1003.85 934.995 995.17 977.505 981.34C1011.02 970.43 1043.21 956.61 1071.5 935.08C1119.69 898.44 1138.76 850.4 1125.85 790.99C1116.52 747.99 1091.19 715.18 1056.12 689.68C1034.76 674.15 1010.6 666.78 983.985 667.58C958.255 668.35 934.115 675.2 911.045 686.13C874.945 703.24 844.235 727.83 815.795 755.47C775.865 794.27 741.855 837.99 710.125 883.58C709.005 885.19 707.845 886.79 706.545 888.58L673.145 870.58C679.865 855.77 686.555 841.65 692.755 827.32C720.065 764.15 742.335 699.55 746.755 630.14C748.695 600.06 746.985 570.22 738.195 541.14C726.195 501.32 701.695 472.66 661.515 459.48C625.055 447.48 587.845 446.66 550.775 456.35C520.215 464.35 495.565 481.29 478.275 508.28C460.275 536.41 452.345 567.47 451.335 600.49C450.335 633.29 454.705 665.56 461.925 697.49C472.925 746.19 490.265 792.69 510.625 838.15C515.435 848.88 520.485 859.5 525.625 870.54L492.115 888.6Z" fill="#D3072B"/>
</svg>
