<svg width="1199" height="1310" viewBox="0 0 1199 1310" fill="none" xmlns="http://www.w3.org/2000/svg">
<path d="M585.315 0H612.315C614.425 0.34 616.535 0.85 618.665 1C650.315 3.11 680.525 10.74 707.905 26.92C777.995 68.34 812.805 130.92 815.995 211.52C816.905 234.46 816.255 257.46 816.325 280.44V287.09C820.085 284.18 822.865 282.2 825.445 279.99C866.085 245.22 912.095 222.83 966.055 218.52C997.805 215.99 1028.83 218.52 1058.7 230.52C1092.46 244.08 1119.46 266.52 1142.37 294.25C1169.2 326.79 1188.01 363.19 1195.26 405.05C1196.79 413.86 1197.69 422.78 1198.88 431.66V454.66C1198.55 456.44 1198.17 458.2 1197.88 459.99C1196.65 468.2 1195.88 476.52 1194.15 484.61C1184.83 526.99 1161.54 560.94 1129.8 589.61C1101.15 615.5 1068.29 634.89 1033.59 651.41C1031.75 652.28 1029.94 653.22 1027.2 654.59C1032.2 656.95 1036.06 658.84 1039.97 660.59C1072.97 675.51 1104.41 693.08 1131.54 717.51C1164.84 747.51 1187.17 783.79 1195.19 828.26C1196.75 836.9 1197.65 845.66 1198.86 854.36V879.36C1198.53 880.97 1198.16 882.58 1197.86 884.2C1195.23 899.4 1193.86 914.94 1189.77 929.75C1176.77 977.13 1149.48 1015.54 1112.54 1047.28C1082.96 1072.69 1048.66 1087.73 1009.78 1091.86C977.685 1095.27 946.785 1089.86 916.785 1078.71C883.315 1066.35 852.785 1048.56 823.585 1028.25C821.505 1026.81 819.325 1025.5 816.335 1023.59V1030.12C816.335 1044.44 816.335 1058.76 816.335 1073.12C816.505 1116.58 809.965 1158.7 790.335 1197.97C765.565 1247.47 727.935 1282.55 674.205 1298.52C633.115 1310.72 591.125 1312.98 549.325 1303.73C471.055 1286.41 419.325 1238.64 393.395 1162.98C380.705 1125.86 381.515 1087.31 383.125 1048.8C383.465 1040.8 384.125 1032.73 384.615 1024.59C383.745 1024.71 383.365 1024.64 383.155 1024.8C379.285 1027.69 375.465 1030.63 371.595 1033.52C327.405 1066.52 279.235 1089.43 223.155 1092.52C186.775 1094.52 152.285 1087.63 120.155 1070.19C85.2648 1051.26 58.0248 1024.03 36.4448 991.08C7.36484 946.69 -3.98516 897.68 1.22484 845.08C5.56484 801.36 25.0848 764.5 55.1748 732.98C83.7048 703.09 117.935 681.2 154.615 662.82C159.885 660.18 165.205 657.64 170.535 655.03C170.125 654.28 170.045 653.88 169.815 653.76C168.335 652.99 166.815 652.25 165.335 651.57C134.915 637.89 105.335 622.74 79.1148 601.83C19.7348 554.52 -7.99518 493.45 2.11482 417.67C10.3548 355.74 38.3548 303.67 87.6348 264.16C143.275 219.4 205.215 205.8 273.905 228.1C312.095 240.5 346.465 260.28 379.225 283.1C380.775 284.18 382.355 285.21 384.765 286.83C384.485 281.69 384.265 277.72 384.075 273.75C383.475 261.31 382.505 248.87 382.385 236.42C382.035 200.42 386.385 164.93 399.585 131.17C428.215 58.1 480.865 14.51 559.115 3.06C567.815 1.79 576.575 1.01 585.315 0ZM492.115 507.6C490.725 505.68 489.685 504.19 488.585 502.73C471.845 480.33 455.665 457.5 438.225 435.65C408.855 398.86 376.545 364.83 338.715 336.46C308.715 313.98 276.485 296.1 239.105 289.18C203.165 282.52 169.545 287.68 139.405 309.51C120.405 323.29 105.465 340.87 93.1648 360.71C74.4148 390.96 66.0348 423.83 69.7548 459.36C73.3348 493.55 89.2248 521.53 114.505 544.36C141.785 569.03 174.215 584.61 208.505 596.72C267.065 617.42 327.915 627.07 389.385 633.61C398.935 634.61 408.495 635.49 418.055 636.43V673.77C417.055 673.98 416.485 674.18 415.835 674.25C394.675 676.61 373.465 678.62 352.365 681.39C310.105 686.94 268.365 695.07 227.595 707.77C192.345 718.77 158.465 732.77 128.595 755.01C81.0948 790.27 61.4648 836.9 71.4148 895.57C78.3448 936.45 99.7548 968.57 131.415 994.43C154.745 1013.49 181.305 1024.07 211.725 1023.82C238.295 1023.6 263.345 1016.89 287.305 1005.73C324.165 988.55 355.365 963.55 384.135 935.28C423.755 896.37 457.255 852.48 488.445 806.72C489.625 804.98 490.855 803.28 492.165 801.43L525.545 820.76C518.715 835.98 511.935 850.42 505.705 865.09C478.705 928.56 456.405 993.32 451.815 1062.86C449.685 1095.1 452.695 1126.66 465.235 1156.86C482.455 1198.35 512.465 1224.86 556.415 1235.15C581.415 1240.96 606.565 1241.15 631.835 1237.57C652.835 1234.63 672.675 1228.29 690.415 1216.36C717.585 1198.08 732.605 1171.62 740.275 1140.62C751.415 1095.62 748.685 1050.47 739.745 1005.47C729.965 956.3 712.975 909.47 692.805 863.74C686.515 849.46 679.805 835.35 673.135 820.74L706.325 801.54C717.215 816.9 727.735 832.04 738.735 846.9C771.485 891.02 807.045 932.59 850.165 967.07C880.735 991.52 913.835 1011.33 952.585 1019.89C981.695 1026.31 1010.82 1026.7 1037.93 1012.84C1085.04 988.76 1114.52 949.9 1126.03 898.58C1137.32 848.23 1123.96 804.39 1086.03 768.68C1068.4 752.07 1048.03 739.63 1026.26 729.26C983.265 708.78 937.735 696.49 891.055 688.67C856.965 682.95 822.525 679.31 788.235 674.8C778.965 673.58 778.955 673.66 778.955 664.1V636.67C781.115 636.3 782.575 635.98 784.055 635.81C805.055 633.44 826.055 631.4 847.055 628.66C891.315 622.85 934.995 614.17 977.505 600.34C1011.02 589.43 1043.21 575.61 1071.5 554.08C1119.69 517.44 1138.76 469.4 1125.85 409.99C1116.52 366.99 1091.19 334.18 1056.12 308.68C1034.76 293.15 1010.6 285.78 983.985 286.58C958.255 287.35 934.115 294.2 911.045 305.13C874.945 322.24 844.235 346.83 815.795 374.47C775.865 413.27 741.855 456.99 710.125 502.58C709.005 504.19 707.845 505.79 706.545 507.58L673.145 489.58C679.865 474.77 686.555 460.65 692.755 446.32C720.065 383.15 742.335 318.55 746.755 249.14C748.695 219.06 746.985 189.22 738.195 160.14C726.195 120.32 701.695 91.66 661.515 78.48C625.055 66.48 587.845 65.66 550.775 75.35C520.215 83.35 495.565 100.29 478.275 127.28C460.275 155.41 452.345 186.47 451.335 219.49C450.335 252.29 454.705 284.56 461.925 316.49C472.925 365.19 490.265 411.69 510.625 457.15C515.435 467.88 520.485 478.5 525.625 489.54L492.115 507.6Z" fill="#D3072B"/>
</svg>
