<?xml version="1.0" encoding="UTF-8" standalone="no"?>
<!DOCTYPE svg PUBLIC "-//W3C//DTD SVG 1.1//EN" "http://www.w3.org/Graphics/SVG/1.1/DTD/svg11.dtd">
<svg width="100%" height="100%" viewBox="0 0 869 869" version="1.1" xmlns="http://www.w3.org/2000/svg" xmlns:xlink="http://www.w3.org/1999/xlink" xml:space="preserve" xmlns:serif="http://www.serif.com/" style="fill-rule:evenodd;clip-rule:evenodd;stroke-linejoin:round;stroke-miterlimit:2;">
    <g transform="matrix(1,0,0,1,-899.39,-454.775)">
        <g transform="matrix(1,0,0,1,-667,-444.611)">
            <g transform="matrix(1,0,0,1,-29.86,507.053)">
                <path d="M2030.36,412.124C1801.9,412.124 1616.04,597.987 1616.04,826.443C1616.04,1054.9 1801.9,1240.77 2030.36,1240.77C2258.82,1240.77 2444.68,1054.9 2444.68,826.443C2444.68,597.987 2258.82,412.124 2030.36,412.124ZM2030.36,1260.56C1790.99,1260.56 1596.25,1065.81 1596.25,826.443C1596.25,587.075 1790.99,392.333 2030.36,392.333C2269.73,392.333 2464.47,587.075 2464.47,826.443C2464.47,1065.81 2269.73,1260.56 2030.36,1260.56Z" style="fill-rule:nonzero;"/>
                <path d="M2030.36,1159.64C2047.11,1159.64 2064,1163.55 2080.34,1167.33C2102.99,1172.59 2124.39,1177.54 2142.53,1171.65C2161.68,1165.43 2176.31,1148.44 2191.79,1130.45C2202.39,1118.13 2213.35,1105.39 2226.2,1096.04C2239.24,1086.54 2254.9,1079.95 2270.03,1073.57C2291.77,1064.41 2312.31,1055.76 2323.96,1039.75C2335.45,1023.96 2337.36,1001.85 2339.39,978.449C2340.82,961.995 2342.29,944.98 2347.34,929.444C2352.14,914.635 2360.76,900.469 2369.1,886.766C2381.51,866.362 2393.24,847.091 2393.24,826.443C2393.24,805.798 2381.51,786.527 2369.1,766.123C2360.76,752.42 2352.14,738.254 2347.34,723.445C2342.29,707.909 2340.82,690.895 2339.39,674.44C2337.37,651.036 2335.45,628.931 2323.96,613.139C2312.31,597.129 2291.77,588.476 2270.03,579.317C2254.9,572.94 2239.25,566.345 2226.2,556.851C2213.35,547.501 2202.39,534.758 2191.79,522.437C2176.31,504.447 2161.68,487.454 2142.52,481.233C2124.4,475.346 2102.99,480.305 2080.34,485.553C2064,489.336 2047.11,493.249 2030.36,493.249C2013.61,493.249 1996.72,489.336 1980.38,485.553C1957.73,480.301 1936.32,475.336 1918.2,481.233C1899.04,487.451 1884.42,504.447 1868.93,522.437C1858.33,534.758 1847.37,547.499 1834.52,556.848C1821.48,566.342 1805.82,572.937 1790.69,579.315C1768.95,588.474 1748.41,597.127 1736.76,613.134C1725.27,628.926 1723.36,651.033 1721.33,674.438C1719.9,690.892 1718.43,707.909 1713.38,723.445C1708.58,738.254 1699.96,752.42 1691.62,766.12C1679.21,786.524 1667.48,805.798 1667.48,826.443C1667.48,847.089 1679.21,866.362 1691.62,886.766C1699.96,900.466 1708.58,914.632 1713.38,929.441C1718.43,944.978 1719.9,961.992 1721.33,978.446C1723.36,1001.85 1725.27,1023.96 1736.76,1039.75C1748.41,1055.76 1768.94,1064.41 1790.68,1073.57C1805.82,1079.95 1821.47,1086.54 1834.52,1096.04C1847.36,1105.39 1858.33,1118.13 1868.93,1130.45C1884.41,1148.44 1899.04,1165.43 1918.19,1171.65C1936.32,1177.54 1957.73,1172.58 1980.38,1167.33C1996.72,1163.55 2013.61,1159.64 2030.36,1159.64ZM1936.59,1194.1C1928.28,1194.1 1920.08,1193.07 1912.08,1190.48C1887.65,1182.54 1870.51,1162.63 1853.93,1143.36C1843.61,1131.37 1833.86,1120.04 1822.87,1112.04C1811.67,1103.89 1797.74,1098.02 1783,1091.81C1759.72,1082 1735.65,1071.86 1720.76,1051.4C1706.03,1031.15 1703.78,1005.23 1701.61,980.154C1700.22,964.101 1698.91,948.939 1694.56,935.553C1690.47,922.943 1682.81,910.366 1674.72,897.053C1661.43,875.216 1647.69,852.635 1647.69,826.443C1647.69,800.251 1661.43,777.67 1674.72,755.834C1682.81,742.52 1690.47,729.943 1694.56,717.333C1698.91,703.947 1700.22,688.783 1701.61,672.73C1703.78,647.659 1706.03,621.734 1720.76,601.49C1735.65,581.028 1759.72,570.886 1783,561.078C1797.75,554.865 1811.68,548.994 1822.88,540.846C1833.86,532.849 1843.61,521.521 1853.93,509.527C1870.51,490.263 1887.65,470.34 1912.08,462.409C1935.44,454.828 1960.56,460.645 1984.85,466.272C2000.1,469.806 2015.87,473.459 2030.36,473.459C2044.85,473.459 2060.62,469.806 2075.87,466.272C2100.16,460.648 2125.29,454.833 2148.64,462.409C2173.07,470.343 2190.21,490.263 2206.79,509.527C2217.11,521.521 2226.86,532.852 2237.85,540.848C2249.04,548.997 2262.97,554.865 2277.72,561.078C2301,570.886 2325.07,581.03 2339.96,601.492C2354.69,621.737 2356.94,647.663 2359.11,672.735C2360.5,688.785 2361.81,703.947 2366.16,717.333C2370.25,729.943 2377.91,742.52 2386.01,755.836C2399.3,777.67 2413.03,800.251 2413.03,826.443C2413.03,852.638 2399.3,875.218 2386.01,897.055C2377.91,910.369 2370.25,922.945 2366.16,935.556C2361.81,948.942 2360.5,964.103 2359.11,980.157C2356.94,1005.23 2354.69,1031.15 2339.96,1051.4C2325.07,1071.86 2301,1082 2277.72,1091.81C2262.97,1098.02 2249.04,1103.89 2237.84,1112.04C2226.85,1120.04 2217.11,1131.36 2206.79,1143.36C2190.21,1162.62 2173.06,1182.54 2148.64,1190.48C2125.28,1198.06 2100.16,1192.24 2075.87,1186.61C2060.62,1183.08 2044.85,1179.43 2030.36,1179.43C2015.87,1179.43 2000.1,1183.08 1984.85,1186.61C1968.88,1190.31 1952.54,1194.1 1936.59,1194.1Z" style="fill-rule:nonzero;"/>
                <path d="M2085.18,1091.38L2085.22,1091.38L2085.18,1091.38ZM2019.09,941.767C1997.69,941.767 1976.29,949.911 1960,966.203C1944.21,981.988 1935.52,1002.97 1935.52,1025.29C1935.52,1047.62 1944.21,1068.6 1960,1084.39C1992.58,1116.97 2045.6,1116.97 2078.18,1084.39C2110.76,1051.8 2110.76,998.788 2078.18,966.203C2061.89,949.916 2040.49,941.767 2019.09,941.767ZM2019.09,1128.6C1992.62,1128.6 1966.15,1118.53 1946.01,1098.38C1926.48,1078.86 1915.73,1052.9 1915.73,1025.29C1915.73,997.688 1926.48,971.732 1946.01,952.21C1986.31,911.907 2051.88,911.917 2092.17,952.21C2132.47,992.509 2132.47,1058.08 2092.17,1098.38C2072.02,1118.53 2045.56,1128.6 2019.09,1128.6Z" style="fill-rule:nonzero;"/>
                <path d="M2056.07,1040.4C2053.53,1040.4 2051,1039.43 2049.07,1037.5L2006.89,995.313C2003.02,991.451 2003.02,985.184 2006.89,981.321C2010.75,977.456 2017.01,977.456 2020.88,981.321L2063.06,1023.51C2066.93,1027.37 2066.93,1033.64 2063.06,1037.5C2061.13,1039.43 2058.6,1040.4 2056.07,1040.4Z" style="fill-rule:nonzero;"/>
                <path d="M2024.29,1072.17C2021.76,1072.17 2019.23,1071.2 2017.3,1069.27L1975.12,1027.08C1971.25,1023.22 1971.25,1016.95 1975.12,1013.09C1978.98,1009.23 1985.24,1009.23 1989.11,1013.09L2031.29,1055.28C2035.15,1059.14 2035.15,1065.41 2031.29,1069.27C2029.36,1071.2 2026.82,1072.17 2024.29,1072.17Z" style="fill-rule:nonzero;"/>
                <path d="M2019.09,548.339C1996.77,548.339 1975.78,557.034 1960,572.816C1944.21,588.602 1935.52,609.585 1935.52,631.907C1935.52,654.229 1944.21,675.216 1960,691C1992.58,723.58 2045.6,723.58 2078.18,691C2110.76,658.416 2110.76,605.398 2078.18,572.816C2062.4,557.034 2041.41,548.339 2019.09,548.339ZM2019.09,735.217C1992.62,735.217 1966.15,725.143 1946.01,704.993C1926.48,685.471 1915.73,659.515 1915.73,631.907C1915.73,604.299 1926.48,578.344 1946.01,558.822C1965.53,539.302 1991.48,528.549 2019.09,528.549C2046.7,528.549 2072.65,539.302 2092.17,558.824C2132.47,599.123 2132.47,664.692 2092.17,704.993C2072.02,725.143 2045.56,735.217 2019.09,735.217Z" style="fill-rule:nonzero;"/>
                <path d="M1982.11,647.009C1979.58,647.009 1977.05,646.042 1975.12,644.11C1971.25,640.247 1971.25,633.98 1975.12,630.117L2017.3,587.935C2021.16,584.069 2027.42,584.069 2031.29,587.935C2035.15,591.798 2035.15,598.064 2031.29,601.927L1989.11,644.11C1987.18,646.042 1984.64,647.009 1982.11,647.009Z" style="fill-rule:nonzero;"/>
                <path d="M2013.88,678.779C2011.35,678.779 2008.82,677.812 2006.89,675.88C2003.02,672.017 2003.02,665.75 2006.89,661.888L2049.07,619.705C2052.93,615.84 2059.2,615.84 2063.06,619.705C2066.93,623.568 2066.93,629.834 2063.06,633.697L2020.88,675.88C2018.94,677.812 2016.41,678.779 2013.88,678.779Z" style="fill-rule:nonzero;"/>
                <path d="M2230.65,759.904C2184.57,759.904 2147.08,797.393 2147.08,843.472C2147.08,889.551 2184.57,927.038 2230.65,927.038C2276.73,927.038 2314.22,889.551 2314.22,843.472C2314.22,797.393 2276.73,759.904 2230.65,759.904ZM2230.65,946.828C2173.66,946.828 2127.29,900.464 2127.29,843.472C2127.29,786.481 2173.66,740.114 2230.65,740.114C2287.65,740.114 2334.01,786.481 2334.01,843.472C2334.01,900.464 2287.65,946.828 2230.65,946.828Z" style="fill-rule:nonzero;"/>
                <path d="M2260.48,830.9L2200.82,830.9C2195.36,830.9 2190.93,826.47 2190.93,821.005C2190.93,815.541 2195.36,811.11 2200.82,811.11L2260.48,811.11C2265.95,811.11 2270.38,815.541 2270.38,821.005C2270.38,826.47 2265.95,830.9 2260.48,830.9Z" style="fill-rule:nonzero;"/>
                <path d="M2260.48,875.832L2200.82,875.832C2195.36,875.832 2190.93,871.401 2190.93,865.937C2190.93,860.472 2195.36,856.042 2200.82,856.042L2260.48,856.042C2265.95,856.042 2270.38,860.472 2270.38,865.937C2270.38,871.401 2265.95,875.832 2260.48,875.832Z" style="fill-rule:nonzero;"/>
                <path d="M1845.63,759.904C1799.56,759.904 1762.07,797.393 1762.07,843.472C1762.07,889.551 1799.56,927.038 1845.63,927.038C1891.71,927.038 1929.2,889.551 1929.2,843.472C1929.2,797.393 1891.71,759.904 1845.63,759.904ZM1845.63,946.828C1788.64,946.828 1742.28,900.464 1742.28,843.472C1742.28,786.481 1788.64,740.114 1845.63,740.114C1902.62,740.114 1948.99,786.481 1948.99,843.472C1948.99,900.464 1902.62,946.828 1845.63,946.828Z" style="fill-rule:nonzero;"/>
                <path d="M1823.17,883.195C1817.7,883.195 1813.27,878.765 1813.27,873.3L1813.27,813.644C1813.27,808.18 1817.7,803.749 1823.17,803.749C1828.63,803.749 1833.06,808.18 1833.06,813.644L1833.06,873.3C1833.06,878.765 1828.63,883.195 1823.17,883.195Z" style="fill-rule:nonzero;"/>
                <path d="M1868.1,883.195C1862.63,883.195 1858.2,878.765 1858.2,873.3L1858.2,813.644C1858.2,808.18 1862.63,803.749 1868.1,803.749C1873.56,803.749 1877.99,808.18 1877.99,813.644L1877.99,873.3C1877.99,878.765 1873.56,883.195 1868.1,883.195Z" style="fill-rule:nonzero;"/>
                <path d="M2034.98,830.9C2032.52,830.9 2030.06,829.992 2028.14,828.158L1985.7,787.606C1981.75,783.833 1981.61,777.569 1985.38,773.617C1989.17,769.662 1995.42,769.524 1999.37,773.3L2041.81,813.852C2045.77,817.625 2045.91,823.89 2042.13,827.842C2040.18,829.876 2037.58,830.9 2034.98,830.9Z" style="fill-rule:nonzero;"/>
                <path d="M2025.52,891.31C2022.26,891.31 2019.08,889.704 2017.19,886.759C2014.23,882.162 2015.57,876.04 2020.16,873.085L2045.43,856.861C2050.03,853.916 2056.15,855.24 2059.1,859.842C2062.05,864.439 2060.72,870.561 2056.12,873.515L2030.86,889.74C2029.2,890.8 2027.35,891.31 2025.52,891.31Z" style="fill-rule:nonzero;"/>
                <path d="M2277.89,657.691C2276.84,657.691 2275.78,657.525 2274.73,657.172L2227.5,641.286C2222.32,639.544 2219.53,633.932 2221.27,628.752C2223.02,623.575 2228.61,620.785 2233.81,622.529L2281.04,638.416C2286.22,640.157 2289.01,645.77 2287.26,650.949C2285.87,655.083 2282.02,657.691 2277.89,657.691Z" style="fill-rule:nonzero;"/>
                <path d="M1889.49,641.805C1885.3,641.805 1881.41,639.124 1880.06,634.92L1864.21,585.301C1862.55,580.095 1865.42,574.527 1870.63,572.862C1875.84,571.196 1881.4,574.075 1883.06,579.276L1898.92,628.895C1900.58,634.101 1897.71,639.669 1892.5,641.334C1891.5,641.653 1890.49,641.805 1889.49,641.805Z" style="fill-rule:nonzero;"/>
                <path d="M1860.41,1019.31C1858.73,1019.31 1857.03,1018.88 1855.47,1017.98L1818.21,996.43C1813.48,993.692 1811.87,987.641 1814.6,982.908C1817.34,978.178 1823.38,976.569 1828.12,979.296L1865.38,1000.84C1870.11,1003.58 1871.72,1009.63 1868.99,1014.36C1867.15,1017.53 1863.83,1019.31 1860.41,1019.31Z" style="fill-rule:nonzero;"/>
                <path d="M2200.81,1066.46C2196.03,1066.46 2191.82,1062.98 2191.05,1058.11L2183.56,1010.96C2182.71,1005.56 2186.39,1000.49 2191.79,999.638C2197.19,998.785 2202.26,1002.46 2203.11,1007.86L2210.6,1055.01C2211.45,1060.41 2207.77,1065.48 2202.37,1066.33C2201.85,1066.42 2201.32,1066.46 2200.81,1066.46Z" style="fill-rule:nonzero;"/>
                <path d="M1824.3,673.868C1824.3,685.281 1815.05,694.533 1803.63,694.533C1792.22,694.533 1782.97,685.281 1782.97,673.868C1782.97,662.456 1792.22,653.204 1803.63,653.204C1815.05,653.204 1824.3,662.456 1824.3,673.868Z" style="fill-rule:nonzero;"/>
                <path d="M2171.9,703.389C2171.9,710.318 2166.29,715.935 2159.36,715.935C2152.43,715.935 2146.81,710.318 2146.81,703.389C2146.81,696.459 2152.43,690.842 2159.36,690.842C2166.29,690.842 2171.9,696.459 2171.9,703.389Z" style="fill-rule:nonzero;"/>
                <path d="M2277.35,1000.4C2277.35,991.981 2284.18,985.156 2292.6,985.156C2301.02,985.156 2307.84,991.981 2307.84,1000.4C2307.84,1008.82 2301.02,1015.64 2292.6,1015.64C2284.18,1015.64 2277.35,1008.82 2277.35,1000.4Z" style="fill-rule:nonzero;"/>
                <path d="M1889.93,1072.3C1889.93,1080.43 1883.34,1087.02 1875.2,1087.02C1867.07,1087.02 1860.48,1080.43 1860.48,1072.3C1860.48,1064.16 1867.07,1057.57 1875.2,1057.57C1883.34,1057.57 1889.93,1064.16 1889.93,1072.3Z" style="fill-rule:nonzero;"/>
            </g>
        </g>
    </g>
</svg>
