<?xml version="1.0" encoding="UTF-8" standalone="no"?>
<!DOCTYPE svg PUBLIC "-//W3C//DTD SVG 1.1//EN" "http://www.w3.org/Graphics/SVG/1.1/DTD/svg11.dtd">
<svg width="100%" height="100%" viewBox="0 0 914 914" version="1.1" xmlns="http://www.w3.org/2000/svg" xmlns:xlink="http://www.w3.org/1999/xlink" xml:space="preserve" xmlns:serif="http://www.serif.com/" style="fill-rule:evenodd;clip-rule:evenodd;stroke-linejoin:round;stroke-miterlimit:2;">
    <g transform="matrix(1,0,0,1,-876.587,-431.974)">
        <g transform="matrix(1,0,0,1,-667,-444.611)">
            <g transform="matrix(1,0,0,1,1110.94,-507.385)">
                <path d="M889.557,1515.52C710.149,1515.52 564.19,1661.48 564.19,1840.89C564.19,2020.29 710.149,2166.25 889.557,2166.25C1068.96,2166.25 1214.93,2020.29 1214.93,1840.89C1214.93,1661.48 1068.96,1515.52 889.557,1515.52ZM889.557,2186.04C699.236,2186.04 544.4,2031.21 544.4,1840.89C544.4,1650.57 699.236,1495.73 889.557,1495.73C1079.88,1495.73 1234.72,1650.57 1234.72,1840.89C1234.72,2031.21 1079.88,2186.04 889.557,2186.04Z" style="fill-rule:nonzero;"/>
                <path d="M889.557,1403.76C648.526,1403.76 452.434,1599.86 452.434,1840.89C452.434,2081.92 648.526,2278.01 889.557,2278.01C1130.59,2278.01 1326.68,2081.92 1326.68,1840.89C1326.68,1599.86 1130.59,1403.76 889.557,1403.76ZM889.557,2297.8C637.614,2297.8 432.644,2092.83 432.644,1840.89C432.644,1588.95 637.614,1383.97 889.557,1383.97C1141.5,1383.97 1346.47,1588.95 1346.47,1840.89C1346.47,2092.83 1141.5,2297.8 889.557,2297.8Z" style="fill-rule:nonzero;"/>
                <path d="M900.8,1938.18C861.586,1938.18 832.017,1967.65 832.017,2006.72C832.017,2045.96 862.229,2076.7 900.8,2076.7C939.733,2076.7 970.233,2045.96 970.233,2006.72C970.233,1967.65 940.383,1938.18 900.8,1938.18ZM900.8,2096.49C851.133,2096.49 812.226,2057.06 812.226,2006.72C812.226,1956.37 850.305,1918.39 900.8,1918.39C950.831,1918.39 990.023,1957.19 990.023,2006.72C990.023,2057.06 950.831,2096.49 900.8,2096.49Z" style="fill-rule:nonzero;"/>
                <path d="M1079.08,1666.04C1052.39,1666.04 1032.26,1687.17 1032.26,1715.2C1032.26,1742.41 1051.95,1762.16 1079.08,1762.16C1107.14,1762.16 1129.12,1741.53 1129.12,1715.2C1129.12,1688.09 1106.67,1666.04 1079.08,1666.04ZM1079.08,1781.95C1041.11,1781.95 1012.47,1753.25 1012.47,1715.2C1012.47,1676.53 1041.73,1646.25 1079.08,1646.25C1117.59,1646.25 1148.91,1677.18 1148.91,1715.2C1148.91,1752.63 1118.24,1781.95 1079.08,1781.95Z" style="fill-rule:nonzero;"/>
                <path d="M785.189,1628.43C754.568,1628.43 728.697,1654.97 728.697,1686.39C728.697,1717.27 754.039,1742.39 785.189,1742.39C815.867,1742.39 839.001,1718.32 839.001,1686.39C839.001,1653.88 815.365,1628.43 785.189,1628.43ZM785.189,1762.18C743.127,1762.18 708.907,1728.18 708.907,1686.39C708.907,1644.24 743.84,1608.64 785.189,1608.64C826.46,1608.64 858.791,1642.79 858.791,1686.39C858.791,1728.89 826.46,1762.18 785.189,1762.18Z" style="fill-rule:nonzero;"/>
                <path d="M1102.13,1901.88C1079.08,1901.88 1061.02,1919.86 1061.02,1942.82C1061.02,1966.4 1079.46,1985.58 1102.13,1985.58C1125.12,1985.58 1144.53,1966 1144.53,1942.82C1144.53,1919.86 1125.91,1901.88 1102.13,1901.88ZM1102.13,2005.37C1068.55,2005.37 1041.23,1977.31 1041.23,1942.82C1041.23,1908.77 1067.98,1882.09 1102.13,1882.09C1136.42,1882.09 1164.32,1909.33 1164.32,1942.82C1164.32,1977.31 1136.42,2005.37 1102.13,2005.37Z" style="fill-rule:nonzero;"/>
                <path d="M706.228,1886.98C682.963,1886.98 664.038,1905.57 664.038,1928.42C664.038,1951.51 682.57,1969.59 706.228,1969.59C729.086,1969.59 746.326,1951.89 746.326,1928.42C746.326,1904.79 729.086,1886.98 706.228,1886.98ZM706.228,1989.38C672.051,1989.38 644.247,1962.04 644.247,1928.42C644.247,1894.66 672.051,1867.19 706.228,1867.19C739.81,1867.19 766.116,1894.08 766.116,1928.42C766.116,1962.61 739.81,1989.38 706.228,1989.38Z" style="fill-rule:nonzero;"/>
                <path d="M934.447,1582.79C915.71,1582.79 901.032,1598.21 901.032,1617.9C901.032,1637.96 916.022,1654.28 934.447,1654.28C953.511,1654.28 970.233,1637.28 970.233,1617.9C970.233,1598.87 953.844,1582.79 934.447,1582.79ZM934.447,1674.07C905.11,1674.07 881.242,1648.87 881.242,1617.9C881.242,1587.63 905.11,1563 934.447,1563C964.573,1563 990.023,1588.14 990.023,1617.9C990.023,1648.35 964.573,1674.07 934.447,1674.07Z" style="fill-rule:nonzero;"/>
                <path d="M871.28,1822.11C858.918,1822.11 848.896,1812.08 848.896,1799.72C848.896,1787.36 858.918,1777.34 871.28,1777.34C883.642,1777.34 893.664,1787.36 893.664,1799.72C893.664,1812.08 883.642,1822.11 871.28,1822.11Z" style="fill-rule:nonzero;"/>
                <path d="M980.697,1866.29C972.249,1866.29 965.401,1859.44 965.401,1850.99C965.401,1842.54 972.249,1835.7 980.697,1835.7C989.144,1835.7 995.993,1842.54 995.993,1850.99C995.993,1859.44 989.144,1866.29 980.697,1866.29Z" style="fill-rule:nonzero;"/>
                <path d="M659.496,1796.14C655.81,1796.14 652.27,1794.07 650.567,1790.52C648.729,1786.69 647.596,1785.14 646.163,1783.19C644.451,1780.85 642.511,1778.21 639.875,1772.71C637.513,1767.78 639.59,1761.87 644.516,1759.51C649.451,1757.14 655.355,1759.23 657.718,1764.15C659.559,1767.99 660.692,1769.53 662.127,1771.49C663.837,1773.83 665.777,1776.47 668.411,1781.96C670.776,1786.88 668.698,1792.8 663.772,1795.16C662.391,1795.82 660.931,1796.14 659.496,1796.14Z" style="fill-rule:nonzero;"/>
                <path d="M1165.67,1845.59C1160.21,1845.59 1155.78,1841.16 1155.78,1835.7C1155.78,1830.23 1160.21,1825.8 1165.67,1825.8C1169.67,1825.8 1171.52,1825.62 1173.67,1825.42C1175.99,1825.19 1178.62,1824.94 1183.57,1824.94C1189.03,1824.94 1193.46,1829.37 1193.46,1834.83C1193.46,1840.3 1189.03,1844.73 1183.57,1844.73C1179.57,1844.73 1177.72,1844.91 1175.57,1845.11C1173.25,1845.34 1170.62,1845.59 1165.67,1845.59Z" style="fill-rule:nonzero;"/>
            </g>
        </g>
    </g>
</svg>
