<?xml version="1.0" encoding="UTF-8" standalone="no"?>
<!DOCTYPE svg PUBLIC "-//W3C//DTD SVG 1.1//EN" "http://www.w3.org/Graphics/SVG/1.1/DTD/svg11.dtd">
<svg width="100%" height="100%" viewBox="0 0 869 869" version="1.1" xmlns="http://www.w3.org/2000/svg" xmlns:xlink="http://www.w3.org/1999/xlink" xml:space="preserve" xmlns:serif="http://www.serif.com/" style="fill-rule:evenodd;clip-rule:evenodd;stroke-linejoin:round;stroke-miterlimit:2;">
    <g transform="matrix(1,0,0,1,-899.1,-454.492)">
        <g transform="matrix(1,0,0,1,-667,-444.611)">
            <g transform="matrix(1,0,0,1,-1125.96,507.057)">
                <path d="M3126.46,411.836C2897.84,411.836 2711.85,597.828 2711.85,826.443C2711.85,1055.06 2897.84,1241.05 3126.46,1241.05C3355.07,1241.05 3541.07,1055.06 3541.07,826.443C3541.07,597.828 3355.07,411.836 3126.46,411.836ZM3126.46,1260.84C2886.93,1260.84 2692.06,1065.97 2692.06,826.443C2692.06,586.915 2886.93,392.046 3126.46,392.046C3365.98,392.046 3560.86,586.915 3560.86,826.443C3560.86,1065.97 3365.98,1260.84 3126.46,1260.84Z" style="fill-rule:nonzero;"/>
                <path d="M3126.46,498.564C2945.66,498.564 2798.58,645.651 2798.58,826.443C2798.58,1007.24 2945.66,1154.32 3126.46,1154.32C3307.25,1154.32 3454.34,1007.24 3454.34,826.443C3454.34,645.651 3307.25,498.564 3126.46,498.564ZM3126.46,1174.12C2934.75,1174.12 2778.79,1018.15 2778.79,826.443C2778.79,634.739 2934.75,478.774 3126.46,478.774C3318.16,478.774 3474.13,634.739 3474.13,826.443C3474.13,1018.15 3318.16,1174.12 3126.46,1174.12Z" style="fill-rule:nonzero;"/>
                <path d="M3550.96,836.338L2701.95,836.338C2696.49,836.338 2692.06,831.908 2692.06,826.443C2692.06,820.978 2696.49,816.548 2701.95,816.548L3550.96,816.548C3556.43,816.548 3560.86,820.978 3560.86,826.443C3560.86,831.908 3556.43,836.338 3550.96,836.338Z" style="fill-rule:nonzero;"/>
                <path d="M3126.46,1260.84C3120.99,1260.84 3116.56,1256.41 3116.56,1250.95L3116.56,401.941C3116.56,396.477 3120.99,392.046 3126.46,392.046C3131.92,392.046 3136.35,396.477 3136.35,401.941L3136.35,1250.95C3136.35,1256.41 3131.92,1260.84 3126.46,1260.84Z" style="fill-rule:nonzero;"/>
                <path d="M2826.29,1136.51C2823.76,1136.51 2821.23,1135.54 2819.29,1133.61C2815.43,1129.75 2815.43,1123.48 2819.29,1119.62L3419.63,519.28C3423.49,515.415 3429.76,515.415 3433.62,519.28C3437.49,523.143 3437.49,529.409 3433.62,533.272L2833.29,1133.61C2831.35,1135.54 2828.82,1136.51 2826.29,1136.51Z" style="fill-rule:nonzero;"/>
                <path d="M3426.62,1136.51C3424.09,1136.51 3421.56,1135.54 3419.63,1133.61L2819.29,533.272C2815.43,529.409 2815.43,523.143 2819.29,519.28C2823.16,515.415 2829.42,515.415 2833.29,519.28L3433.62,1119.62C3437.49,1123.48 3437.49,1129.75 3433.62,1133.61C3431.69,1135.54 3429.16,1136.51 3426.62,1136.51Z" style="fill-rule:nonzero;"/>
                <path d="M3343.59,716.067C3330.13,716.067 3319.18,727.016 3319.18,740.474C3319.18,753.933 3330.13,764.883 3343.59,764.883C3357.05,764.883 3368,753.933 3368,740.474C3368,727.016 3357.05,716.067 3343.59,716.067ZM3343.59,784.674C3319.22,784.674 3299.39,764.845 3299.39,740.474C3299.39,716.103 3319.22,696.277 3343.59,696.277C3367.96,696.277 3387.79,716.103 3387.79,740.474C3387.79,764.845 3367.96,784.674 3343.59,784.674Z" style="fill-rule:nonzero;"/>
                <path d="M3025.91,560.955C3014.1,560.955 3004.49,570.567 3004.49,582.381C3004.49,594.194 3014.1,603.804 3025.91,603.804C3037.72,603.804 3047.33,594.194 3047.33,582.381C3047.33,570.567 3037.72,560.955 3025.91,560.955ZM3025.91,623.595C3003.19,623.595 2984.7,605.106 2984.7,582.381C2984.7,559.655 3003.19,541.165 3025.91,541.165C3048.63,541.165 3067.12,559.655 3067.12,582.381C3067.12,605.106 3048.63,623.595 3025.91,623.595Z" style="fill-rule:nonzero;"/>
                <path d="M2899.14,787.657C2869.83,787.657 2845.99,763.815 2845.99,734.509C2845.99,705.203 2869.83,681.361 2899.14,681.361C2904.6,681.361 2909.03,685.792 2909.03,691.257C2909.03,696.721 2904.6,701.152 2899.14,701.152C2880.74,701.152 2865.78,716.115 2865.78,734.509C2865.78,752.903 2880.74,767.867 2899.14,767.867C2910.55,767.867 2921.06,762.12 2927.23,752.493C2930.18,747.893 2936.3,746.557 2940.91,749.507C2945.51,752.459 2946.84,758.581 2943.89,763.18C2934.06,778.506 2917.33,787.657 2899.14,787.657Z" style="fill-rule:nonzero;"/>
                <path d="M2899.14,869.686C2887.32,869.686 2877.71,879.299 2877.71,891.112C2877.71,902.925 2887.32,912.538 2899.14,912.538C2910.95,912.538 2920.56,902.925 2920.56,891.112C2920.56,879.299 2910.95,869.686 2899.14,869.686ZM2899.14,932.328C2876.41,932.328 2857.92,913.838 2857.92,891.112C2857.92,868.387 2876.41,849.896 2899.14,849.896C2921.86,849.896 2940.35,868.387 2940.35,891.112C2940.35,913.838 2921.86,932.328 2899.14,932.328Z" style="fill-rule:nonzero;"/>
                <path d="M3025.91,1093.41C2995.78,1093.41 2971.27,1068.89 2971.27,1038.77C2971.27,1008.64 2995.78,984.128 3025.91,984.128C3033.28,984.128 3040.44,985.573 3047.18,988.423C3052.21,990.552 3054.57,996.359 3052.44,1001.39C3050.31,1006.43 3044.52,1008.78 3039.47,1006.65C3035.18,1004.84 3030.62,1003.92 3025.91,1003.92C3006.69,1003.92 2991.06,1019.55 2991.06,1038.77C2991.06,1057.98 3006.69,1073.61 3025.91,1073.61C3045.12,1073.61 3060.76,1057.98 3060.76,1038.77C3060.76,1033.3 3065.19,1028.87 3070.65,1028.87C3076.12,1028.87 3080.55,1033.3 3080.55,1038.77C3080.55,1068.89 3056.04,1093.41 3025.91,1093.41Z" style="fill-rule:nonzero;"/>
                <path d="M3220.35,571.162C3201.13,571.162 3185.5,586.794 3185.5,606.01C3185.5,625.225 3201.13,640.858 3220.35,640.858C3239.56,640.858 3255.19,625.225 3255.19,606.01C3255.19,586.794 3239.56,571.162 3220.35,571.162ZM3220.35,660.648C3190.22,660.648 3165.71,636.138 3165.71,606.01C3165.71,575.882 3190.22,551.372 3220.35,551.372C3250.47,551.372 3274.98,575.882 3274.98,606.01C3274.98,636.138 3250.47,660.648 3220.35,660.648Z" style="fill-rule:nonzero;"/>
                <path d="M3189.97,1093.41C3178.86,1093.41 3168.17,1090.09 3159.04,1083.81C3154.54,1080.72 3153.4,1074.56 3156.49,1070.05C3159.59,1065.56 3165.76,1064.41 3170.25,1067.51C3176.07,1071.5 3182.88,1073.61 3189.97,1073.61C3209.19,1073.61 3224.82,1057.98 3224.82,1038.77C3224.82,1019.55 3209.19,1003.92 3189.97,1003.92C3184.51,1003.92 3180.08,999.488 3180.08,994.023C3180.08,988.559 3184.51,984.128 3189.97,984.128C3220.1,984.128 3244.61,1008.64 3244.61,1038.77C3244.61,1068.89 3220.1,1093.41 3189.97,1093.41Z" style="fill-rule:nonzero;"/>
                <path d="M3336.13,890.566C3318.57,890.566 3304.27,904.86 3304.27,922.433C3304.27,940.003 3318.57,954.298 3336.13,954.298C3353.7,954.298 3368,940.003 3368,922.433C3368,904.86 3353.7,890.566 3336.13,890.566ZM3336.13,974.088C3307.65,974.088 3284.48,950.916 3284.48,922.433C3284.48,893.948 3307.65,870.776 3336.13,870.776C3364.62,870.776 3387.79,893.948 3387.79,922.433C3387.79,950.916 3364.62,974.088 3336.13,974.088Z" style="fill-rule:nonzero;"/>
                <path d="M3082.59,726.506C3079.49,726.506 3076.44,725.054 3074.51,722.331L3049.15,686.536C3045.99,682.077 3047.05,675.899 3051.51,672.742C3055.98,669.577 3062.15,670.638 3065.3,675.095L3090.66,710.89C3093.82,715.35 3092.76,721.527 3088.3,724.684C3086.56,725.916 3084.57,726.506 3082.59,726.506Z" style="fill-rule:nonzero;"/>
                <path d="M3283.46,796.634C3281.61,796.634 3279.74,796.118 3278.08,795.033L3241.31,771.109C3236.73,768.13 3235.43,761.999 3238.41,757.418C3241.39,752.838 3247.52,751.541 3252.1,754.522L3288.87,778.446C3293.45,781.424 3294.75,787.556 3291.77,792.136C3289.87,795.05 3286.7,796.634 3283.46,796.634Z" style="fill-rule:nonzero;"/>
                <path d="M3090.03,989.006C3085.25,989.006 3081.04,985.527 3080.27,980.652L3075.79,952.314C3074.94,946.917 3078.62,941.849 3084.02,940.996C3089.42,940.153 3094.48,943.828 3095.34,949.227L3099.82,977.564C3100.67,982.961 3096.99,988.03 3091.59,988.882C3091.06,988.965 3090.55,989.006 3090.03,989.006Z" style="fill-rule:nonzero;"/>
                <path d="M3175.6,533.608C3175.6,539.654 3170.7,544.555 3164.66,544.555C3158.61,544.555 3153.71,539.654 3153.71,533.608C3153.71,527.562 3158.61,522.662 3164.66,522.662C3170.7,522.662 3175.6,527.562 3175.6,533.608Z" style="fill-rule:nonzero;"/>
                <path d="M3005.53,886.073C3005.53,892.119 3000.63,897.02 2994.59,897.02C2988.54,897.02 2983.64,892.119 2983.64,886.073C2983.64,880.027 2988.54,875.126 2994.59,875.126C3000.63,875.126 3005.53,880.027 3005.53,886.073Z" style="fill-rule:nonzero;"/>
                <path d="M3189.97,691.256C3189.97,699.191 3183.54,705.623 3175.6,705.623C3167.67,705.623 3161.24,699.191 3161.24,691.256C3161.24,683.322 3167.67,676.89 3175.6,676.89C3183.54,676.89 3189.97,683.322 3189.97,691.256Z" style="fill-rule:nonzero;"/>
                <path d="M3175.6,949.827C3175.6,957.761 3169.17,964.193 3161.24,964.193C3153.3,964.193 3146.87,957.761 3146.87,949.827C3146.87,941.893 3153.3,935.46 3161.24,935.46C3169.17,935.46 3175.6,941.893 3175.6,949.827Z" style="fill-rule:nonzero;"/>
                <path d="M3023.32,789.145C3023.32,797.08 3016.89,803.512 3008.95,803.512C3001.02,803.512 2994.59,797.08 2994.59,789.145C2994.59,781.21 3001.02,774.778 3008.95,774.778C3016.89,774.778 3023.32,781.21 3023.32,789.145Z" style="fill-rule:nonzero;"/>
            </g>
        </g>
    </g>
</svg>
