<?xml version="1.0" encoding="UTF-8" standalone="no"?>
<!DOCTYPE svg PUBLIC "-//W3C//DTD SVG 1.1//EN" "http://www.w3.org/Graphics/SVG/1.1/DTD/svg11.dtd">
<svg width="100%" height="100%" viewBox="0 0 914 914" version="1.1" xmlns="http://www.w3.org/2000/svg" xmlns:xlink="http://www.w3.org/1999/xlink" xml:space="preserve" xmlns:serif="http://www.serif.com/" style="fill-rule:evenodd;clip-rule:evenodd;stroke-linejoin:round;stroke-miterlimit:2;">
    <g transform="matrix(1,0,0,1,-876.587,-431.974)">
        <g transform="matrix(1,0,0,1,443.943,62.4434)">
            <g>
                <path d="M924.236,651.372C909.412,651.372 897.352,639.312 897.352,624.488L897.352,581.506C897.352,577.595 894.168,574.411 890.257,574.411C886.346,574.411 883.162,577.595 883.162,581.506L883.162,606.102C883.162,611.566 878.731,615.997 873.267,615.997C867.802,615.997 863.371,611.566 863.371,606.102L863.371,581.506C863.371,566.681 875.432,554.621 890.257,554.621C905.083,554.621 917.143,566.681 917.143,581.506L917.143,624.488C917.143,628.399 920.325,631.581 924.236,631.581C928.147,631.581 931.331,628.399 931.331,624.488L931.331,591.682C931.331,586.217 935.762,581.787 941.226,581.787C946.691,581.787 951.121,586.217 951.121,591.682L951.121,624.488C951.121,639.312 939.061,651.372 924.236,651.372Z" style="fill-rule:nonzero;"/>
                <path d="M684.352,768.867L651.548,768.867C636.723,768.867 624.662,756.808 624.662,741.984C624.662,727.158 636.723,715.098 651.548,715.098L694.528,715.098C698.439,715.098 701.623,711.915 701.623,708.003C701.623,704.092 698.439,700.91 694.528,700.91L669.935,700.91C664.471,700.91 660.04,696.479 660.04,691.015C660.04,685.55 664.471,681.12 669.935,681.12L694.528,681.12C709.354,681.12 721.413,693.18 721.413,708.003C721.413,722.829 709.354,734.889 694.528,734.889L651.548,734.889C647.637,734.889 644.453,738.073 644.453,741.984C644.453,745.895 647.637,749.077 651.548,749.077L684.352,749.077C689.817,749.077 694.248,753.507 694.248,758.972C694.248,764.437 689.817,768.867 684.352,768.867Z" style="fill-rule:nonzero;"/>
                <path d="M644.714,895.876L611.907,895.876C597.084,895.876 585.024,883.816 585.024,868.993C585.024,854.167 597.084,842.107 611.907,842.107C617.371,842.107 621.802,846.538 621.802,852.002C621.802,857.467 617.371,861.897 611.907,861.897C607.996,861.897 604.814,865.082 604.814,868.993C604.814,872.904 607.996,876.086 611.907,876.086L644.714,876.086C650.179,876.086 654.609,880.517 654.609,885.981C654.609,891.445 650.179,895.876 644.714,895.876Z" style="fill-rule:nonzero;"/>
                <path d="M1083.05,1029.93C1077.58,1029.93 1073.15,1025.5 1073.15,1020.03C1073.15,1014.57 1077.58,1010.14 1083.05,1010.14C1086.96,1010.14 1090.14,1006.95 1090.14,1003.04C1090.14,999.13 1086.96,995.949 1083.05,995.949L1058.46,995.949C1052.99,995.949 1048.56,991.518 1048.56,986.054C1048.56,980.589 1052.99,976.158 1058.46,976.158L1083.05,976.158C1097.87,976.158 1109.93,988.218 1109.93,1003.04C1109.93,1017.87 1097.87,1029.93 1083.05,1029.93Z" style="fill-rule:nonzero;"/>
                <path d="M766.988,1034.43C752.162,1034.43 740.102,1022.37 740.102,1007.54L740.102,964.562C740.102,960.651 736.921,957.467 733.01,957.467C729.098,957.467 725.914,960.651 725.914,964.562L725.914,997.367C725.914,1002.83 721.484,1007.26 716.019,1007.26C710.555,1007.26 706.124,1002.83 706.124,997.367L706.124,964.562C706.124,949.737 718.183,937.677 733.01,937.677C747.833,937.677 759.892,949.737 759.892,964.562L759.892,1007.54C759.892,1011.45 763.077,1014.64 766.988,1014.64C770.899,1014.64 774.083,1011.45 774.083,1007.54L774.083,982.949C774.083,977.485 778.514,973.054 783.978,973.054C789.443,973.054 793.873,977.485 793.873,982.949L793.873,1007.54C793.873,1022.37 781.814,1034.43 766.988,1034.43Z" style="fill-rule:nonzero;"/>
                <path d="M1108.74,853.725L1083.52,853.725C1070.86,853.725 1060.56,843.426 1060.56,830.77C1060.56,818.111 1070.86,807.812 1083.52,807.812L1116.56,807.812C1118.31,807.812 1119.73,806.392 1119.73,804.648C1119.73,802.901 1118.31,801.48 1116.56,801.48L1097.65,801.48C1092.19,801.48 1087.76,797.05 1087.76,791.585C1087.76,786.121 1092.19,781.69 1097.65,781.69L1116.56,781.69C1129.22,781.69 1139.52,791.989 1139.52,804.648C1139.52,817.304 1129.22,827.603 1116.56,827.603L1083.52,827.603C1081.77,827.603 1080.35,829.023 1080.35,830.77C1080.35,832.514 1081.77,833.935 1083.52,833.935L1108.74,833.935C1114.2,833.935 1118.63,838.365 1118.63,843.83C1118.63,849.294 1114.2,853.725 1108.74,853.725Z" style="fill-rule:nonzero;"/>
                <path d="M958.217,1112.25C943.391,1112.25 931.331,1100.19 931.331,1085.37L931.331,1042.39C931.331,1038.47 928.147,1035.29 924.236,1035.29C920.325,1035.29 917.143,1038.47 917.143,1042.39L917.143,1066.98C917.143,1072.45 912.712,1076.88 907.247,1076.88C901.783,1076.88 897.352,1072.45 897.352,1066.98L897.352,1042.39C897.352,1027.56 909.412,1015.5 924.236,1015.5C939.061,1015.5 951.121,1027.56 951.121,1042.39L951.121,1085.37C951.121,1089.28 954.305,1092.46 958.217,1092.46C962.128,1092.46 965.309,1089.28 965.309,1085.37L965.309,1052.56C965.309,1047.1 969.74,1042.67 975.204,1042.67C980.669,1042.67 985.099,1047.1 985.099,1052.56L985.099,1085.37C985.099,1100.19 973.04,1112.25 958.217,1112.25Z" style="fill-rule:nonzero;"/>
                <path d="M1080.6,683.391C1075.45,683.391 1070.41,681.908 1065.99,679.033C1059.98,675.119 1055.84,669.092 1054.35,662.066C1052.87,655.041 1054.2,647.856 1058.12,641.839C1061.1,637.256 1067.23,635.958 1071.81,638.94C1076.39,641.918 1077.69,648.047 1074.71,652.628C1072.57,655.909 1073.51,660.312 1076.78,662.446C1078.37,663.477 1080.28,663.83 1082.12,663.438C1083.98,663.047 1085.57,661.955 1086.6,660.368L1104.49,632.867C1107.47,628.289 1113.6,626.986 1118.18,629.97C1122.76,632.949 1124.06,639.078 1121.08,643.66L1103.19,671.16C1099.28,677.177 1093.25,681.313 1086.22,682.799C1084.35,683.195 1082.47,683.391 1080.6,683.391Z" style="fill-rule:nonzero;"/>
                <path d="M814.753,853.725C809.289,853.725 804.858,849.294 804.858,843.83L804.858,819.234C804.858,804.411 816.918,792.351 831.742,792.351C846.567,792.351 858.627,804.411 858.627,819.234C858.627,824.699 854.196,829.129 848.732,829.129C843.267,829.129 838.837,824.699 838.837,819.234C838.837,815.323 835.653,812.142 831.742,812.142C827.83,812.142 824.648,815.323 824.648,819.234L824.648,843.83C824.648,849.294 820.218,853.725 814.753,853.725Z" style="fill-rule:nonzero;"/>
                <path d="M977.896,809.325C971.011,809.325 964.125,806.706 958.886,801.464C955.02,797.601 955.02,791.334 958.886,787.471C962.746,783.606 969.017,783.606 972.878,787.471C975.649,790.237 980.145,790.237 982.911,787.471C985.677,784.705 985.677,780.202 982.911,777.436L965.519,760.044C961.657,756.179 961.657,749.915 965.522,746.05C969.387,742.189 975.651,742.187 979.516,746.052L996.906,763.444C1007.39,773.926 1007.39,790.981 996.903,801.464C991.663,806.706 984.778,809.325 977.896,809.325Z" style="fill-rule:nonzero;"/>
                <path d="M848.732,717.898C843.267,717.898 838.837,713.468 838.837,708.003C838.837,704.092 835.653,700.91 831.742,700.91C827.83,700.91 824.648,704.092 824.648,708.003C824.648,713.468 820.218,717.898 814.753,717.898C809.289,717.898 804.858,713.468 804.858,708.003C804.858,693.18 816.918,681.12 831.742,681.12C846.567,681.12 858.627,693.18 858.627,708.003C858.627,713.468 854.196,717.898 848.732,717.898Z" style="fill-rule:nonzero;"/>
                <path d="M741.503,599.895C736.039,599.895 731.608,595.465 731.608,590C731.608,584.536 736.039,580.105 741.503,580.105C745.414,580.105 748.599,576.923 748.599,573.012C748.599,569.101 745.414,565.917 741.503,565.917C736.039,565.917 731.608,561.486 731.608,556.022C731.608,550.557 736.039,546.126 741.503,546.126C756.329,546.126 768.389,558.187 768.389,573.012C768.389,587.836 756.329,599.895 741.503,599.895Z" style="fill-rule:nonzero;"/>
                <path d="M823.247,1129.24C808.421,1129.24 796.362,1117.18 796.362,1102.36C796.362,1087.53 808.421,1075.47 823.247,1075.47C828.712,1075.47 833.142,1079.9 833.142,1085.37C833.142,1090.83 828.712,1095.26 823.247,1095.26C819.336,1095.26 816.152,1098.45 816.152,1102.36C816.152,1106.27 819.336,1109.45 823.247,1109.45C828.712,1109.45 833.142,1113.88 833.142,1119.35C833.142,1124.81 828.712,1129.24 823.247,1129.24Z" style="fill-rule:nonzero;"/>
                <path d="M941.226,950.374C935.762,950.374 931.331,945.944 931.331,940.479C931.331,935.015 935.762,930.584 941.226,930.584C945.137,930.584 948.321,927.4 948.321,923.489C948.321,919.578 945.137,916.396 941.226,916.396C935.762,916.396 931.331,911.965 931.331,906.501C931.331,901.036 935.762,896.605 941.226,896.605C956.052,896.605 968.112,908.666 968.112,923.489C968.112,938.315 956.052,950.374 941.226,950.374Z" style="fill-rule:nonzero;"/>
                <path d="M889.557,389.321C648.526,389.321 452.434,585.413 452.434,826.443C452.434,1067.47 648.526,1263.57 889.557,1263.57C1130.59,1263.57 1326.68,1067.47 1326.68,826.443C1326.68,585.413 1130.59,389.321 889.557,389.321ZM889.557,1283.36C637.614,1283.36 432.644,1078.39 432.644,826.443C432.644,574.5 637.614,369.531 889.557,369.531C1141.5,369.531 1346.47,574.5 1346.47,826.443C1346.47,1078.39 1141.5,1283.36 889.557,1283.36Z" style="fill-rule:nonzero;"/>
                <path d="M889.557,471.725C693.965,471.725 534.838,630.852 534.838,826.443C534.838,1022.03 693.965,1181.16 889.557,1181.16C1085.15,1181.16 1244.28,1022.03 1244.28,826.443C1244.28,630.852 1085.15,471.725 889.557,471.725ZM889.557,1200.95C683.051,1200.95 515.047,1032.95 515.047,826.443C515.047,619.937 683.051,451.934 889.557,451.934C1096.06,451.934 1264.07,619.937 1264.07,826.443C1264.07,1032.95 1096.06,1200.95 889.557,1200.95Z" style="fill-rule:nonzero;"/>
            </g>
        </g>
    </g>
</svg>
