<?xml version="1.0" encoding="UTF-8" standalone="no"?>
<!DOCTYPE svg PUBLIC "-//W3C//DTD SVG 1.1//EN" "http://www.w3.org/Graphics/SVG/1.1/DTD/svg11.dtd">
<svg width="100%" height="100%" viewBox="0 0 879 879" version="1.1" xmlns="http://www.w3.org/2000/svg" xmlns:xlink="http://www.w3.org/1999/xlink" xml:space="preserve" xmlns:serif="http://www.serif.com/" style="fill-rule:evenodd;clip-rule:evenodd;stroke-linejoin:round;stroke-miterlimit:2;">
    <g transform="matrix(1,0,0,1,-894.38,-449.774)">
        <g transform="matrix(1,0,0,1,-667,-444.611)">
            <g transform="matrix(1,0,0,1,-29.86,-507.385)">
                <path d="M2030.36,1421.56C1799.14,1421.56 1611.03,1609.67 1611.03,1840.89C1611.03,2072.1 1799.14,2260.21 2030.36,2260.21C2261.58,2260.21 2449.69,2072.1 2449.69,1840.89C2449.69,1609.67 2261.58,1421.56 2030.36,1421.56ZM2030.36,2280C1788.23,2280 1591.24,2083.02 1591.24,1840.89C1591.24,1598.75 1788.23,1401.77 2030.36,1401.77C2272.49,1401.77 2469.48,1598.75 2469.48,1840.89C2469.48,2083.02 2272.49,2280 2030.36,2280Z" style="fill-rule:nonzero;"/>
                <path d="M2030.36,2174.63C2047.13,2174.63 2064.03,2178.54 2080.38,2182.31C2103.09,2187.56 2124.54,2192.51 2142.7,2186.62C2161.89,2180.39 2176.55,2163.37 2192.07,2145.36C2202.68,2133.03 2213.66,2120.29 2226.52,2110.93C2239.58,2101.42 2255.24,2094.81 2270.39,2088.42C2292.16,2079.24 2312.72,2070.56 2324.39,2054.52C2335.92,2038.69 2337.85,2016.54 2339.89,1993.09C2341.32,1976.63 2342.8,1959.6 2347.85,1944.06C2352.67,1929.23 2361.28,1915.05 2369.62,1901.33C2382.05,1880.89 2393.79,1861.58 2393.79,1840.89C2393.79,1820.2 2382.05,1800.89 2369.62,1780.44C2361.28,1766.72 2352.67,1752.54 2347.85,1737.72C2342.8,1722.17 2341.32,1705.14 2339.89,1688.68C2337.85,1665.23 2335.92,1643.09 2324.4,1627.26C2312.72,1611.22 2292.16,1602.54 2270.38,1593.35C2255.24,1586.96 2239.58,1580.36 2226.52,1570.85C2213.66,1561.49 2202.68,1548.75 2192.07,1536.42C2176.55,1518.4 2161.89,1501.39 2142.7,1495.16C2124.51,1489.26 2103.08,1494.21 2080.38,1499.46C2064.03,1503.24 2047.13,1507.15 2030.36,1507.15C2013.6,1507.15 1996.69,1503.24 1980.34,1499.46C1957.64,1494.21 1936.2,1489.26 1918.02,1495.16C1898.83,1501.39 1884.18,1518.4 1868.66,1536.41C1858.04,1548.74 1847.06,1561.49 1834.2,1570.85C1821.14,1580.35 1805.48,1586.96 1790.33,1593.35C1768.56,1602.54 1748,1611.22 1736.32,1627.26C1724.81,1643.08 1722.87,1665.23 1720.83,1688.68C1719.4,1705.14 1717.91,1722.17 1712.87,1737.72C1708.05,1752.54 1699.43,1766.72 1691.1,1780.44C1678.67,1800.88 1666.94,1820.19 1666.94,1840.89C1666.94,1861.58 1678.67,1880.89 1691.1,1901.33C1699.43,1915.05 1708.05,1929.23 1712.87,1944.06C1717.91,1959.6 1719.4,1976.63 1720.83,1993.1C1722.87,2016.54 1724.8,2038.68 1736.32,2054.52C1748,2070.56 1768.56,2079.24 1790.34,2088.42C1805.48,2094.81 1821.14,2101.42 1834.2,2110.92C1847.05,2120.28 1858.04,2133.03 1868.65,2145.35C1884.17,2163.37 1898.83,2180.38 1918.02,2186.61C1936.2,2192.51 1957.64,2187.56 1980.34,2182.31C1996.69,2178.54 2013.6,2174.63 2030.36,2174.63ZM2124.24,2209.07C2108.26,2209.07 2091.92,2205.29 2075.92,2201.6C2060.66,2198.06 2044.87,2194.42 2030.36,2194.42C2015.85,2194.42 2000.07,2198.06 1984.79,2201.6C1960.47,2207.22 1935.31,2213.04 1911.91,2205.44C1887.45,2197.5 1870.27,2177.55 1853.66,2158.27C1843.32,2146.26 1833.56,2134.93 1822.55,2126.92C1811.34,2118.76 1797.4,2112.88 1782.64,2106.66C1759.33,2096.82 1735.23,2086.65 1720.32,2066.16C1705.56,2045.88 1703.3,2019.92 1701.12,1994.81C1699.71,1978.75 1698.4,1963.57 1694.04,1950.16C1689.94,1937.54 1682.29,1924.95 1674.19,1911.61C1660.89,1889.74 1647.15,1867.12 1647.15,1840.89C1647.15,1814.65 1660.89,1792.03 1674.19,1770.16C1682.29,1756.83 1689.94,1744.24 1694.04,1731.61C1698.4,1718.21 1699.71,1703.03 1701.12,1686.96C1703.3,1661.85 1705.57,1635.89 1720.32,1615.61C1735.23,1595.12 1759.33,1584.95 1782.64,1575.12C1797.4,1568.89 1811.34,1563.01 1822.55,1554.84C1833.56,1546.83 1843.32,1535.5 1853.66,1523.5C1870.28,1504.21 1887.45,1484.27 1911.91,1476.33C1935.32,1468.73 1960.47,1474.55 1984.79,1480.18C2000.06,1483.71 2015.85,1487.36 2030.36,1487.36C2044.87,1487.36 2060.66,1483.71 2075.92,1480.18C2100.26,1474.55 2125.4,1468.74 2148.81,1476.34C2173.27,1484.28 2190.45,1504.22 2207.06,1523.51C2217.4,1535.51 2227.16,1546.84 2238.17,1554.85C2249.38,1563.01 2263.32,1568.89 2278.07,1575.12C2301.39,1584.95 2325.49,1595.12 2340.4,1615.61C2355.16,1635.89 2357.42,1661.85 2359.6,1686.96C2361,1703.03 2362.32,1718.21 2366.68,1731.61C2370.77,1744.24 2378.43,1756.83 2386.53,1770.16C2399.83,1792.03 2413.58,1814.65 2413.58,1840.89C2413.58,1867.12 2399.83,1889.74 2386.53,1911.61C2378.43,1924.95 2370.77,1937.54 2366.68,1950.16C2362.32,1963.57 2361,1978.74 2359.6,1994.81C2357.42,2019.92 2355.16,2045.89 2340.4,2066.16C2325.49,2086.65 2301.39,2096.82 2278.08,2106.66C2263.32,2112.88 2249.38,2118.77 2238.17,2126.93C2227.16,2134.93 2217.4,2146.27 2207.06,2158.27C2190.45,2177.55 2173.27,2197.5 2148.81,2205.44C2140.79,2208.04 2132.56,2209.07 2124.24,2209.07Z" style="fill-rule:nonzero;"/>
                <path d="M2035.44,1787.33L2034.89,1787.33C1993.88,1787.56 1960.37,1811.07 1960.19,1839.75C1960.01,1868.56 1993.52,1893.48 2034.88,1895.3C2058.41,1896.34 2080.11,1889.13 2094.32,1875.52C2103.99,1866.28 2109.09,1855 2109.09,1842.94C2109.09,1830.73 2103.92,1819.13 2094.13,1809.39C2080.02,1795.36 2058.65,1787.33 2035.44,1787.33ZM2039.3,1915.18C2037.55,1915.18 2035.78,1915.14 2034.02,1915.07C1982.15,1912.79 1940.16,1878.95 1940.4,1839.62C1940.65,1800.16 1982.99,1767.83 2034.78,1767.54L2035.44,1767.54C2063.84,1767.54 2090.28,1777.66 2108.08,1795.36C2121.5,1808.7 2128.88,1825.59 2128.88,1842.94C2128.88,1860.29 2121.47,1876.94 2108.01,1889.82C2091.02,1906.08 2066.21,1915.18 2039.3,1915.18Z" style="fill-rule:nonzero;"/>
                <path d="M2231,1728.68C2214.2,1728.68 2200.53,1742.35 2200.53,1759.15C2200.53,1775.95 2214.2,1789.61 2231,1789.61C2247.8,1789.61 2261.46,1775.95 2261.46,1759.15C2261.46,1742.35 2247.8,1728.68 2231,1728.68ZM2231,1809.4C2203.29,1809.4 2180.74,1786.86 2180.74,1759.15C2180.74,1731.43 2203.29,1708.89 2231,1708.89C2258.71,1708.89 2281.25,1731.43 2281.25,1759.15C2281.25,1786.86 2258.71,1809.4 2231,1809.4Z" style="fill-rule:nonzero;"/>
                <path d="M2075.89,1547.05C2056.24,1547.05 2040.26,1563.03 2040.26,1582.69C2040.26,1602.34 2056.24,1618.33 2075.89,1618.33C2095.55,1618.33 2111.54,1602.34 2111.54,1582.69C2111.54,1563.03 2095.55,1547.05 2075.89,1547.05ZM2075.89,1638.12C2045.33,1638.12 2020.47,1613.25 2020.47,1582.69C2020.47,1552.12 2045.33,1527.26 2075.89,1527.26C2106.46,1527.26 2131.33,1552.12 2131.33,1582.69C2131.33,1613.25 2106.46,1638.12 2075.89,1638.12Z" style="fill-rule:nonzero;"/>
                <path d="M2061.4,2102.41C2055.94,2102.41 2051.51,2097.98 2051.51,2092.51C2051.51,2087.05 2055.94,2082.62 2061.4,2082.62C2085,2082.62 2104.2,2063.42 2104.2,2039.82C2104.2,2016.23 2085,1997.04 2061.4,1997.04C2037.81,1997.04 2018.62,2016.23 2018.62,2039.82C2018.62,2045.29 2014.19,2049.72 2008.72,2049.72C2003.26,2049.72 1998.83,2045.29 1998.83,2039.82C1998.83,2005.32 2026.9,1977.25 2061.4,1977.25C2095.91,1977.25 2123.99,2005.32 2123.99,2039.82C2123.99,2074.33 2095.91,2102.41 2061.4,2102.41Z" style="fill-rule:nonzero;"/>
                <path d="M1783.69,1902.34C1770.77,1902.34 1760.26,1912.85 1760.26,1925.77C1760.26,1938.69 1770.77,1949.21 1783.69,1949.21C1796.61,1949.21 1807.12,1938.69 1807.12,1925.77C1807.12,1912.85 1796.61,1902.34 1783.69,1902.34ZM1783.69,1969C1759.86,1969 1740.47,1949.61 1740.47,1925.77C1740.47,1901.94 1759.86,1882.55 1783.69,1882.55C1807.52,1882.55 1826.91,1901.94 1826.91,1925.77C1826.91,1949.61 1807.52,1969 1783.69,1969Z" style="fill-rule:nonzero;"/>
                <path d="M1746.66,1765.34C1741.19,1765.34 1736.76,1760.91 1736.76,1755.44C1736.76,1749.98 1741.19,1745.55 1746.66,1745.55C1796.33,1745.55 1836.74,1705.14 1836.74,1655.46C1836.74,1636.91 1831.15,1619.09 1820.56,1603.93C1817.43,1599.45 1818.52,1593.28 1823,1590.15C1827.49,1587.02 1833.66,1588.12 1836.78,1592.59C1849.7,1611.09 1856.53,1632.83 1856.53,1655.46C1856.53,1716.05 1807.24,1765.34 1746.66,1765.34Z" style="fill-rule:nonzero;"/>
                <path d="M2066.47,2155.98C2065.81,2155.98 2065.14,2155.91 2064.48,2155.77L1960.06,2134.41C1954.7,2133.32 1951.25,2128.09 1952.35,2122.74C1953.44,2117.38 1958.68,2113.9 1964.02,2115.03L2068.44,2136.39C2073.8,2137.48 2077.25,2142.71 2076.15,2148.06C2075.19,2152.75 2071.07,2155.98 2066.47,2155.98Z" style="fill-rule:nonzero;"/>
                <path d="M1846.64,1872.4C1841.17,1872.4 1836.74,1867.97 1836.74,1862.5L1836.74,1791.31C1836.74,1785.85 1841.17,1781.42 1846.64,1781.42C1852.1,1781.42 1856.53,1785.85 1856.53,1791.31L1856.53,1862.5C1856.53,1867.97 1852.1,1872.4 1846.64,1872.4Z" style="fill-rule:nonzero;"/>
                <path d="M2098.5,1699.17C2095.1,1699.17 2091.79,1697.42 2089.95,1694.27C2087.19,1689.56 2088.78,1683.49 2093.5,1680.73L2156.38,1643.95C2161.11,1641.19 2167.16,1642.78 2169.92,1647.5C2172.68,1652.21 2171.09,1658.28 2166.37,1661.03L2103.49,1697.82C2101.92,1698.74 2100.2,1699.17 2098.5,1699.17Z" style="fill-rule:nonzero;"/>
                <path d="M2244.67,2012.41C2239.21,2012.41 2234.78,2007.98 2234.78,2002.51C2234.78,1968.19 2232.5,1951.51 2230.09,1933.85C2227.69,1916.31 2225.21,1898.18 2225.21,1862.5C2225.21,1857.04 2229.64,1852.61 2235.11,1852.61C2240.57,1852.61 2245,1857.04 2245,1862.5C2245,1896.83 2247.28,1913.51 2249.69,1931.17C2252.09,1948.71 2254.57,1966.84 2254.57,2002.51C2254.57,2007.98 2250.14,2012.41 2244.67,2012.41Z" style="fill-rule:nonzero;"/>
                <path d="M1910.67,2077.67C1905.2,2077.67 1900.77,2073.24 1900.77,2067.77C1900.77,2032.76 1905.14,2014.98 1909.36,1997.78C1913.48,1980.98 1917.38,1965.13 1917.38,1932.51C1917.38,1927.04 1921.81,1922.61 1927.27,1922.61C1932.74,1922.61 1937.17,1927.04 1937.17,1932.51C1937.17,1967.52 1932.8,1985.3 1928.58,2002.5C1924.46,2019.29 1920.56,2035.15 1920.56,2067.77C1920.56,2073.24 1916.13,2077.67 1910.67,2077.67Z" style="fill-rule:nonzero;"/>
                <path d="M1957.24,1734.76C1951.78,1734.76 1947.35,1730.33 1947.35,1724.87C1947.35,1693.98 1945.04,1678.96 1942.58,1663.07C1940.12,1647.14 1937.58,1630.67 1937.58,1598.26C1937.58,1592.8 1942.01,1588.37 1947.48,1588.37C1952.94,1588.37 1957.37,1592.8 1957.37,1598.26C1957.37,1629.16 1959.68,1644.17 1962.14,1660.06C1964.6,1675.99 1967.14,1692.46 1967.14,1724.87C1967.14,1730.33 1962.71,1734.76 1957.24,1734.76Z" style="fill-rule:nonzero;"/>
            </g>
        </g>
    </g>
</svg>
