<?xml version="1.0" encoding="UTF-8" standalone="no"?>
<!DOCTYPE svg PUBLIC "-//W3C//DTD SVG 1.1//EN" "http://www.w3.org/Graphics/SVG/1.1/DTD/svg11.dtd">
<svg width="100%" height="100%" viewBox="0 0 882 882" version="1.1" xmlns="http://www.w3.org/2000/svg" xmlns:xlink="http://www.w3.org/1999/xlink" xml:space="preserve" xmlns:serif="http://www.serif.com/" style="fill-rule:evenodd;clip-rule:evenodd;stroke-linejoin:round;stroke-miterlimit:2;">
    <g transform="matrix(1,0,0,1,-892.595,-447.984)">
        <g transform="matrix(1,0,0,1,-667,-444.611)">
            <g transform="matrix(1,0,0,1,-1125.96,-507.385)">
                <path d="M3126.46,1419.77C2894.25,1419.77 2705.34,1608.68 2705.34,1840.89C2705.34,2073.09 2894.25,2262 3126.46,2262C3358.66,2262 3547.57,2073.09 3547.57,1840.89C3547.57,1608.68 3358.66,1419.77 3126.46,1419.77ZM3126.46,2281.79C2883.34,2281.79 2685.55,2084 2685.55,1840.89C2685.55,1597.77 2883.34,1399.98 3126.46,1399.98C3369.57,1399.98 3567.36,1597.77 3567.36,1840.89C3567.36,2084 3369.57,2281.79 3126.46,2281.79Z" style="fill-rule:nonzero;"/>
                <path d="M3126.46,1515.88C2947.25,1515.88 2801.46,1661.68 2801.46,1840.89C2801.46,2020.09 2947.25,2165.89 3126.46,2165.89C3305.67,2165.89 3451.46,2020.09 3451.46,1840.89C3451.46,1661.68 3305.67,1515.88 3126.46,1515.88ZM3126.46,2185.68C2936.34,2185.68 2781.67,2031.01 2781.67,1840.89C2781.67,1650.77 2936.34,1496.09 3126.46,1496.09C3316.57,1496.09 3471.25,1650.77 3471.25,1840.89C3471.25,2031.01 3316.57,2185.68 3126.46,2185.68Z" style="fill-rule:nonzero;"/>
                <path d="M3141.46,1969.09C3100.48,1969.09 3067.14,2002.43 3067.14,2043.41C3067.14,2084.39 3100.48,2117.73 3141.46,2117.73C3182.44,2117.73 3215.78,2084.39 3215.78,2043.41C3215.78,2002.43 3182.44,1969.09 3141.46,1969.09ZM3141.46,2137.52C3089.57,2137.52 3047.35,2095.3 3047.35,2043.41C3047.35,1991.52 3089.57,1949.3 3141.46,1949.3C3193.35,1949.3 3235.57,1991.52 3235.57,2043.41C3235.57,2095.3 3193.35,2137.52 3141.46,2137.52Z" style="fill-rule:nonzero;"/>
                <path d="M2934.53,1764.16C2892.22,1764.16 2857.8,1798.58 2857.8,1840.89C2857.8,1883.19 2892.22,1917.61 2934.53,1917.61C2976.83,1917.61 3011.25,1883.19 3011.25,1840.89C3011.25,1798.58 2976.83,1764.16 2934.53,1764.16ZM2934.53,1937.4C2881.31,1937.4 2838.01,1894.11 2838.01,1840.89C2838.01,1787.67 2881.31,1744.37 2934.53,1744.37C2987.75,1744.37 3031.05,1787.67 3031.05,1840.89C3031.05,1894.11 2987.75,1937.4 2934.53,1937.4Z" style="fill-rule:nonzero;"/>
                <path d="M3305.08,1711.43C3251.45,1711.43 3207.82,1755.05 3207.82,1808.68C3207.82,1862.31 3251.45,1905.94 3305.08,1905.94C3358.7,1905.94 3402.33,1862.31 3402.33,1808.68C3402.33,1755.05 3358.7,1711.43 3305.08,1711.43ZM3305.08,1925.73C3240.53,1925.73 3188.03,1873.22 3188.03,1808.68C3188.03,1744.14 3240.53,1691.64 3305.08,1691.64C3369.61,1691.64 3422.12,1744.14 3422.12,1808.68C3422.12,1873.22 3369.61,1925.73 3305.08,1925.73Z" style="fill-rule:nonzero;"/>
                <path d="M3126.46,1547.73C3091.95,1547.73 3063.89,1575.8 3063.89,1610.3C3063.89,1644.8 3091.95,1672.87 3126.46,1672.87C3160.96,1672.87 3189.03,1644.8 3189.03,1610.3C3189.03,1575.8 3160.96,1547.73 3126.46,1547.73ZM3126.46,1692.66C3081.04,1692.66 3044.09,1655.71 3044.09,1610.3C3044.09,1564.89 3081.04,1527.94 3126.46,1527.94C3171.87,1527.94 3208.82,1564.89 3208.82,1610.3C3208.82,1655.71 3171.87,1692.66 3126.46,1692.66Z" style="fill-rule:nonzero;"/>
                <path d="M2945.8,1808.68C2945.8,1818.98 2937.45,1827.32 2927.16,1827.32C2916.86,1827.32 2908.52,1818.98 2908.52,1808.68C2908.52,1798.39 2916.86,1790.04 2927.16,1790.04C2937.45,1790.04 2945.8,1798.39 2945.8,1808.68Z" style="fill-rule:nonzero;"/>
                <path d="M2924.14,1859.53C2924.14,1869.82 2915.8,1878.16 2905.5,1878.16C2895.21,1878.16 2886.86,1869.82 2886.86,1859.53C2886.86,1849.23 2895.21,1840.89 2905.5,1840.89C2915.8,1840.89 2924.14,1849.23 2924.14,1859.53Z" style="fill-rule:nonzero;"/>
                <path d="M2987.76,1856.14C2987.76,1866.44 2979.41,1874.78 2969.12,1874.78C2958.82,1874.78 2950.48,1866.44 2950.48,1856.14C2950.48,1845.85 2958.82,1837.5 2969.12,1837.5C2979.41,1837.5 2987.76,1845.85 2987.76,1856.14Z" style="fill-rule:nonzero;"/>
                <path d="M3147.15,1793.57C3147.15,1803.86 3138.8,1812.21 3128.51,1812.21C3118.21,1812.21 3109.87,1803.86 3109.87,1793.57C3109.87,1783.28 3118.21,1774.93 3128.51,1774.93C3138.8,1774.93 3147.15,1783.28 3147.15,1793.57Z" style="fill-rule:nonzero;"/>
                <path d="M3110.49,1615.37C3110.49,1622.99 3104.31,1629.17 3096.69,1629.17C3089.06,1629.17 3082.88,1622.99 3082.88,1615.37C3082.88,1607.74 3089.06,1601.56 3096.69,1601.56C3104.31,1601.56 3110.49,1607.74 3110.49,1615.37Z" style="fill-rule:nonzero;"/>
                <path d="M3168.64,1601.56C3168.64,1611.05 3160.95,1618.74 3151.46,1618.74C3141.98,1618.74 3134.28,1611.05 3134.28,1601.56C3134.28,1592.07 3141.98,1584.38 3151.46,1584.38C3160.95,1584.38 3168.64,1592.07 3168.64,1601.56Z" style="fill-rule:nonzero;"/>
                <path d="M2980.15,1655.07C2980.15,1664.56 2972.46,1672.25 2962.97,1672.25C2953.49,1672.25 2945.8,1664.56 2945.8,1655.07C2945.8,1645.59 2953.49,1637.9 2962.97,1637.9C2972.46,1637.9 2980.15,1645.59 2980.15,1655.07Z" style="fill-rule:nonzero;"/>
                <path d="M3320.18,1760.84C3320.18,1769.19 3313.42,1775.95 3305.07,1775.95C3296.73,1775.95 3289.96,1769.19 3289.96,1760.84C3289.96,1752.5 3296.73,1745.73 3305.07,1745.73C3313.42,1745.73 3320.18,1752.5 3320.18,1760.84Z" style="fill-rule:nonzero;"/>
                <path d="M3285.87,1813.23C3285.87,1823.93 3277.2,1832.61 3266.5,1832.61C3255.8,1832.61 3247.12,1823.93 3247.12,1813.23C3247.12,1802.53 3255.8,1793.86 3266.5,1793.86C3277.2,1793.86 3285.87,1802.53 3285.87,1813.23Z" style="fill-rule:nonzero;"/>
                <path d="M3368.29,1807.43C3368.29,1817.67 3359.99,1825.98 3349.74,1825.98C3339.49,1825.98 3331.19,1817.67 3331.19,1807.43C3331.19,1797.18 3339.49,1788.87 3349.74,1788.87C3359.99,1788.87 3368.29,1797.18 3368.29,1807.43Z" style="fill-rule:nonzero;"/>
                <path d="M3341.56,1857.31C3341.56,1869.12 3331.99,1878.69 3320.18,1878.69C3308.38,1878.69 3298.81,1869.12 3298.81,1857.31C3298.81,1845.5 3308.38,1835.93 3320.18,1835.93C3331.99,1835.93 3341.56,1845.5 3341.56,1857.31Z" style="fill-rule:nonzero;"/>
                <path d="M3332.72,1633.7C3332.72,1645.5 3323.15,1655.07 3311.34,1655.07C3299.53,1655.07 3289.96,1645.5 3289.96,1633.7C3289.96,1621.89 3299.53,1612.32 3311.34,1612.32C3323.15,1612.32 3332.72,1621.89 3332.72,1633.7Z" style="fill-rule:nonzero;"/>
                <path d="M2984.23,2014.71C2984.23,2023.06 2977.47,2029.83 2969.12,2029.83C2960.77,2029.83 2954,2023.06 2954,2014.71C2954,2006.36 2960.77,1999.6 2969.12,1999.6C2977.47,1999.6 2984.23,2006.36 2984.23,2014.71Z" style="fill-rule:nonzero;"/>
                <path d="M3162.26,2006.88C3162.26,2015.23 3155.5,2022 3147.15,2022C3138.8,2022 3132.03,2015.23 3132.03,2006.88C3132.03,1998.54 3138.8,1991.77 3147.15,1991.77C3155.5,1991.77 3162.26,1998.54 3162.26,2006.88Z" style="fill-rule:nonzero;"/>
                <path d="M3136.07,2049.97C3136.07,2058.32 3129.31,2065.08 3120.96,2065.08C3112.61,2065.08 3105.84,2058.32 3105.84,2049.97C3105.84,2041.62 3112.61,2034.85 3120.96,2034.85C3129.31,2034.85 3136.07,2041.62 3136.07,2049.97Z" style="fill-rule:nonzero;"/>
                <path d="M3181.69,2065.08C3181.69,2073.43 3174.93,2080.2 3166.58,2080.2C3158.23,2080.2 3151.46,2073.43 3151.46,2065.08C3151.46,2056.74 3158.23,2049.97 3166.58,2049.97C3174.93,2049.97 3181.69,2056.74 3181.69,2065.08Z" style="fill-rule:nonzero;"/>
                <path d="M3305.08,2006.88C3305.08,2015.23 3298.31,2022 3289.96,2022C3281.61,2022 3274.85,2015.23 3274.85,2006.88C3274.85,1998.54 3281.61,1991.77 3289.96,1991.77C3298.31,1991.77 3305.08,1998.54 3305.08,2006.88Z" style="fill-rule:nonzero;"/>
            </g>
        </g>
    </g>
</svg>
